<svg viewBox="0 0 560 1000" xmlns="http://www.w3.org/2000/svg" role="img" aria-label="Cloud &amp; Services Architecture Map">
  <defs>
    <!-- Background Gradients -->
    <linearGradient id="bg" x1="0%" y1="0%" x2="100%" y2="100%">
      <stop offset="0%" stop-color="#02060f"/>
      <stop offset="50%" stop-color="#081324"/>
      <stop offset="100%" stop-color="#02050a"/>
    </linearGradient>

    <!-- Aurora and Glows -->
    <radialGradient id="auroraGlow" cx="50%" cy="50%" r="50%">
      <stop offset="0%" stop-color="#22D3EE" stop-opacity="0.35"/>
      <stop offset="100%" stop-color="#22D3EE" stop-opacity="0"/>
    </radialGradient>
    <radialGradient id="auroraPink" cx="50%" cy="50%" r="50%">
      <stop offset="0%" stop-color="#F472B6" stop-opacity="0.25"/>
      <stop offset="100%" stop-color="#F472B6" stop-opacity="0"/>
    </radialGradient>
    <radialGradient id="auroraPurple" cx="50%" cy="50%" r="50%">
      <stop offset="0%" stop-color="#8B5CF6" stop-opacity="0.3"/>
      <stop offset="100%" stop-color="#8B5CF6" stop-opacity="0"/>
    </radialGradient>

    <!-- Text Gradients -->
    <linearGradient id="textGrad" x1="0%" y1="0%" x2="100%" y2="0%">
      <stop offset="0%" stop-color="#BAE6FD"/>
      <stop offset="50%" stop-color="#38BDF8"/>
      <stop offset="100%" stop-color="#5EEAD4"/>
    </linearGradient>

    <!-- Filters -->
    <filter id="glow" x="-50%" y="-50%" width="200%" height="200%">
      <feGaussianBlur stdDeviation="4" result="blur"/>
      <feMerge>
        <feMergeNode in="blur"/>
        <feMergeNode in="SourceGraphic"/>
      </feMerge>
    </filter>
    
    <filter id="softGlow" x="-50%" y="-50%" width="200%" height="200%">
      <feGaussianBlur stdDeviation="15"/>
    </filter>

    <!-- ICONS DEFINITIONS -->
    <g id="icon-compute" stroke="#38BDF8" stroke-width="2" fill="none" transform="scale(0.8)">
      <rect x="-8" y="-10" width="16" height="6" rx="1"/>
      <rect x="-8" y="-1" width="16" height="6" rx="1"/>
      <rect x="-8" y="8" width="16" height="6" rx="1"/>
      <circle cx="-4" cy="-7" r="1" fill="#38BDF8"/>
      <circle cx="-4" cy="2" r="1" fill="#38BDF8"/>
      <circle cx="-4" cy="11" r="1" fill="#38BDF8"/>
    </g>
    
    <g id="icon-storage" stroke="#5EEAD4" stroke-width="2" fill="none" transform="scale(0.8)">
      <path d="M-8,-8 C-8,-12 8,-12 8,-8 L8,8 C8,12 -8,12 -8,8 Z"/>
      <path d="M-8,-8 C-8,-4 8,-4 8,-8"/>
      <line x1="-3" y1="2" x2="3" y2="2"/>
    </g>

    <g id="icon-db" stroke="#818CF8" stroke-width="2" fill="none" transform="scale(0.8)">
      <ellipse cx="0" cy="-7" rx="8" ry="3"/>
      <path d="M-8,-7 L-8,1 C-8,4 8,4 8,1 L8,-7"/>
      <path d="M-8,1 L-8,9 C-8,12 8,12 8,9 L8,1"/>
    </g>
    
    <g id="icon-analytics" stroke="#C084FC" stroke-width="2" fill="none" transform="scale(0.8)">
      <rect x="-9" y="0" width="4" height="8" rx="0.5"/>
      <rect x="-2" y="-4" width="4" height="12" rx="0.5"/>
      <rect x="5" y="-9" width="4" height="17" rx="0.5"/>
      <line x1="-10" y1="10" x2="10" y2="10"/>
    </g>

    <g id="icon-network" stroke="#A78BFA" stroke-width="2" fill="none" transform="scale(0.8)">
      <path d="M-5,4 C-9,4 -10,0 -8,-3 C-9,-7 -4,-10 0,-8 C4,-10 9,-7 8,-3 C10,0 9,4 5,4 Z"/>
      <circle cx="0" cy="-2" r="1.5" fill="#A78BFA"/>
    </g>

    <g id="icon-security" stroke="#F87171" stroke-width="2" fill="none" transform="scale(0.8)">
      <path d="M0,-10 L8,-6 L8,2 C8,8 0,12 0,12 C0,12 -8,8 -8,2 L-8,-6 Z"/>
      <circle cx="0" cy="1" r="2"/>
      <line x1="0" y1="3" x2="0" y2="6"/>
    </g>

    <g id="icon-serverless" stroke="#FCD34D" stroke-width="2" fill="none" transform="scale(0.8)">
      <path d="M-6,8 L0,-8 L6,8"/>
      <path d="M-3,-1 L3,8"/>
    </g>

    <g id="icon-pipeline" stroke="#FBBF24" stroke-width="2" fill="none" transform="scale(0.8)">
      <rect x="-10" y="-4" width="6" height="8" rx="1"/>
      <rect x="4" y="-4" width="6" height="8" rx="1"/>
      <line x1="-4" y1="0" x2="4" y2="0"/>
      <polygon points="1,-3 4,0 1,3" fill="#FBBF24"/>
    </g>

    <g id="icon-monitor" stroke="#34D399" stroke-width="2" fill="none" transform="scale(0.8)">
      <rect x="-9" y="-7" width="18" height="14" rx="2"/>
      <polyline points="-5,1 -2,1 0,-3 3,5 5,1 7,1"/>
    </g>
    
    <g id="icon-container" stroke="#60A5FA" stroke-width="2" fill="none" transform="scale(0.8)">
      <polygon points="0,-10 8,-5 8,5 0,10 -8,5 -8,-5"/>
      <circle cx="0" cy="0" r="2" fill="#60A5FA"/>
    </g>
    
    <g id="icon-global" stroke="#F472B6" stroke-width="2" fill="none" transform="scale(0.8)">
      <circle cx="0" cy="0" r="9"/>
      <ellipse cx="0" cy="0" rx="4" ry="9"/>
      <line x1="-9" y1="0" x2="9" y2="0"/>
    </g>
  </defs>

  <style>
    .t-mono { font-family: 'JetBrains Mono', 'Fira Code', Consolas, monospace; }
    .t-main { font-family: 'Segoe UI', Roboto, sans-serif; }
    .node-bg { fill: #041224; stroke: #22D3EE; stroke-opacity: 0.25; stroke-width: 1.5; rx: 8; transition: all 0.3s; }
    .node-text { fill: #F0F9FF; font-size: 14.5px; font-weight: 600; }
    .cloud-panel { fill: #061121; fill-opacity: 0.8; stroke: #38BDF8; stroke-opacity: 0.15; stroke-width: 1.5; rx: 16; }
    .cloud-title { fill: #E0F2FE; font-size: 18px; font-weight: 800; letter-spacing: 2px; }
  </style>

  <!-- ==================== ANIMATED BACKGROUND ==================== -->
  <!-- Base Background -->
  <rect width="560" height="1000" fill="url(#bg)" rx="16"/>

  <!-- Orbital Data Rings -->
  <g transform="translate(280, 500)" opacity="0.12">
    <circle r="450" fill="none" stroke="#22D3EE" stroke-width="1.5" stroke-dasharray="15 35">
      <animateTransform attributeName="transform" type="rotate" values="0; 360" dur="120s" repeatCount="indefinite"/>
    </circle>
    <circle r="350" fill="none" stroke="#5EEAD4" stroke-width="2" stroke-dasharray="150 50 20 60">
      <animateTransform attributeName="transform" type="rotate" values="360; 0" dur="90s" repeatCount="indefinite"/>
    </circle>
    <circle r="200" fill="none" stroke="#8B5CF6" stroke-width="1" stroke-dasharray="4 8">
      <animateTransform attributeName="transform" type="rotate" values="0; 360" dur="60s" repeatCount="indefinite"/>
    </circle>
  </g>

  <!-- Constellation Neural Nodes -->
  <g stroke="#38BDF8" stroke-opacity="0.3" stroke-width="1" fill="none">
    <path d="M 50,80 L 150,150 L 120,280 Z">
       <animate attributeName="opacity" values="0.1; 0.7; 0.1" dur="5s" repeatCount="indefinite"/>
    </path>
    <path d="M 400,100 L 480,180 L 450,320 L 350,220 Z">
       <animate attributeName="opacity" values="0.1; 0.6; 0.1" dur="6s" repeatCount="indefinite"/>
    </path>
    <path d="M 80,700 L 180,800 L 250,680 Z">
       <animate attributeName="opacity" values="0.1; 0.8; 0.1" dur="7s" repeatCount="indefinite"/>
    </path>
    <path d="M 350,850 L 480,750 L 520,880 Z">
       <animate attributeName="opacity" values="0.1; 0.7; 0.1" dur="4.5s" repeatCount="indefinite"/>
    </path>
  </g>

  <!-- Pulsing Data Cores -->
  <g fill="#5EEAD4" filter="url(#glow)">
    <circle r="3" cx="150" cy="150" opacity="0">
       <animate attributeName="opacity" values="0; 0.9; 0" dur="5s" repeatCount="indefinite"/>
       <animate attributeName="r" values="1; 4; 1" dur="5s" repeatCount="indefinite"/>
    </circle>
    <circle r="3" cx="480" cy="180" opacity="0" fill="#F472B6">
       <animate attributeName="opacity" values="0; 0.9; 0" dur="6s" repeatCount="indefinite" begin="1s"/>
       <animate attributeName="r" values="1; 5; 1" dur="6s" repeatCount="indefinite" begin="1s"/>
    </circle>
    <circle r="3" cx="180" cy="800" opacity="0" fill="#38BDF8">
       <animate attributeName="opacity" values="0; 0.9; 0" dur="7s" repeatCount="indefinite" begin="2s"/>
       <animate attributeName="r" values="2; 6; 2" dur="7s" repeatCount="indefinite" begin="2s"/>
    </circle>
    <circle r="3" cx="480" cy="750" opacity="0" fill="#8B5CF6">
       <animate attributeName="opacity" values="0; 0.9; 0" dur="4.5s" repeatCount="indefinite" begin="0.5s"/>
       <animate attributeName="r" values="1; 4; 1" dur="4.5s" repeatCount="indefinite" begin="0.5s"/>
    </circle>
  </g>

  <!-- Ambient Auroras -->
  <circle cx="100" cy="400" r="300" fill="url(#auroraGlow)" filter="url(#softGlow)">
    <animate attributeName="cx" values="50; 250; 50" dur="18s" repeatCount="indefinite"/>
    <animate attributeName="opacity" values="0.3; 0.7; 0.3" dur="8s" repeatCount="indefinite"/>
  </circle>
  <circle cx="450" cy="250" r="300" fill="url(#auroraPink)" filter="url(#softGlow)">
    <animate attributeName="cy" values="100; 400; 100" dur="22s" repeatCount="indefinite"/>
    <animate attributeName="opacity" values="0.3; 0.6; 0.3" dur="10s" repeatCount="indefinite"/>
  </circle>
  <circle cx="280" cy="800" r="350" fill="url(#auroraPurple)" filter="url(#softGlow)">
    <animate attributeName="cx" values="150; 400; 150" dur="25s" repeatCount="indefinite"/>
    <animate attributeName="opacity" values="0.2; 0.5; 0.2" dur="12s" repeatCount="indefinite"/>
  </circle>

  <!-- Title -->
  <g filter="url(#glow)">
    <text x="40" y="55" class="t-mono" font-size="22" fill="url(#textGrad)" font-weight="bold">> Cloud &amp; Services</text>
  </g>
  <line x1="40" y1="75" x2="350" y2="75" stroke="url(#textGrad)" stroke-width="2" opacity="0.4">
    <animate attributeName="x2" values="40; 350" dur="2s" fill="freeze"/>
  </line>

  <!-- ==================== AWS CLOUD PANEL ==================== -->
  <g transform="translate(40, 100)">
    <rect width="480" height="860" class="cloud-panel"/>
    <text x="30" y="40" class="t-main cloud-title">☁️ AMAZON WEB SERVICES (AWS)</text>
    
    <!-- Compute Row 1 -->
    <text x="30" y="80" class="t-mono" font-size="12" fill="#7C93A8">COMPUTE &amp; CONTAINERS</text>
    <g transform="translate(30, 95)">
      <rect width="130" height="45" class="node-bg"/>
      <use href="#icon-compute" x="25" y="22"/>
      <text x="50" y="27" class="t-main node-text">EC2</text>
    </g>
    <g transform="translate(175, 95)">
      <rect width="130" height="45" class="node-bg"/>
      <use href="#icon-serverless" x="25" y="22"/>
      <text x="50" y="27" class="t-main node-text">Lambda</text>
    </g>
    <g transform="translate(320, 95)">
      <rect width="130" height="45" class="node-bg"/>
      <use href="#icon-container" x="25" y="22"/>
      <text x="50" y="27" class="t-main node-text">EKS</text>
    </g>

    <!-- Compute Row 2 -->
    <g transform="translate(30, 155)">
      <rect width="130" height="45" class="node-bg"/>
      <use href="#icon-container" x="25" y="22"/>
      <text x="50" y="27" class="t-main node-text">ECS</text>
    </g>
    <g transform="translate(175, 155)">
      <rect width="130" height="45" class="node-bg"/>
      <use href="#icon-compute" x="25" y="22"/>
      <text x="50" y="27" class="t-main node-text">Auto Scaling</text>
    </g>
    <g transform="translate(320, 155)">
      <rect width="130" height="45" class="node-bg"/>
      <use href="#icon-serverless" x="25" y="22"/>
      <text x="50" y="27" class="t-main node-text">Elast.Beanstalk</text>
    </g>

    <!-- Storage Row -->
    <text x="30" y="240" class="t-mono" font-size="12" fill="#7C93A8">STORAGE</text>
    <g transform="translate(30, 255)">
      <rect width="130" height="45" class="node-bg"/>
      <use href="#icon-storage" x="25" y="22"/>
      <text x="50" y="27" class="t-main node-text">S3</text>
    </g>
    <g transform="translate(175, 255)">
      <rect width="130" height="45" class="node-bg"/>
      <use href="#icon-storage" x="25" y="22"/>
      <text x="50" y="27" class="t-main node-text">EBS</text>
    </g>
    <g transform="translate(320, 255)">
      <rect width="130" height="45" class="node-bg"/>
      <use href="#icon-storage" x="25" y="22"/>
      <text x="50" y="27" class="t-main node-text">EFS</text>
    </g>

    <!-- Databases Row 1 -->
    <text x="30" y="340" class="t-mono" font-size="12" fill="#7C93A8">DATABASES &amp; ANALYTICS</text>
    <g transform="translate(30, 355)">
      <rect width="130" height="45" class="node-bg"/>
      <use href="#icon-db" x="25" y="22"/>
      <text x="50" y="27" class="t-main node-text">RDS</text>
    </g>
    <g transform="translate(175, 355)">
      <rect width="130" height="45" class="node-bg"/>
      <use href="#icon-db" x="25" y="22"/>
      <text x="50" y="27" class="t-main node-text">DynamoDB</text>
    </g>
    <g transform="translate(320, 355)">
      <rect width="130" height="45" class="node-bg"/>
      <use href="#icon-db" x="25" y="22"/>
      <text x="50" y="27" class="t-main node-text">ElastiCache</text>
    </g>

    <!-- Databases Row 2 -->
    <g transform="translate(30, 415)">
      <rect width="130" height="45" class="node-bg"/>
      <use href="#icon-analytics" x="25" y="22"/>
      <text x="50" y="27" class="t-main node-text">Redshift</text>
    </g>
    <g transform="translate(175, 415)">
      <rect width="130" height="45" class="node-bg"/>
      <use href="#icon-analytics" x="25" y="22"/>
      <text x="50" y="27" class="t-main node-text">Athena</text>
    </g>
    <g transform="translate(320, 415)">
      <rect width="130" height="45" class="node-bg"/>
      <use href="#icon-analytics" x="25" y="22"/>
      <text x="50" y="27" class="t-main node-text">Glue</text>
    </g>

    <!-- Networking & Delivery Row -->
    <text x="30" y="500" class="t-mono" font-size="12" fill="#7C93A8">NETWORKING &amp; DELIVERY</text>
    <g transform="translate(30, 515)">
      <rect width="130" height="45" class="node-bg"/>
      <use href="#icon-network" x="25" y="22"/>
      <text x="50" y="27" class="t-main node-text">VPC</text>
    </g>
    <g transform="translate(175, 515)">
      <rect width="130" height="45" class="node-bg"/>
      <use href="#icon-global" x="25" y="22"/>
      <text x="50" y="27" class="t-main node-text">Route 53</text>
    </g>
    <g transform="translate(320, 515)">
      <rect width="130" height="45" class="node-bg"/>
      <use href="#icon-network" x="25" y="22"/>
      <text x="50" y="27" class="t-main node-text">ELB</text>
    </g>
    
    <!-- Networking Row 2 -->
    <g transform="translate(30, 575)">
      <rect width="130" height="45" class="node-bg"/>
      <use href="#icon-network" x="25" y="22"/>
      <text x="50" y="27" class="t-main node-text">API Gateway</text>
    </g>

    <!-- Security & Management Row 1 -->
    <text x="30" y="660" class="t-mono" font-size="12" fill="#7C93A8">SECURITY &amp; MANAGEMENT</text>
    <g transform="translate(30, 675)">
      <rect width="130" height="45" class="node-bg"/>
      <use href="#icon-security" x="25" y="22"/>
      <text x="50" y="27" class="t-main node-text">IAM</text>
    </g>
    <g transform="translate(175, 675)">
      <rect width="130" height="45" class="node-bg"/>
      <use href="#icon-monitor" x="25" y="22"/>
      <text x="50" y="27" class="t-main node-text">CloudWatch</text>
    </g>
    <g transform="translate(320, 675)">
      <rect width="130" height="45" class="node-bg"/>
      <use href="#icon-monitor" x="25" y="22"/>
      <text x="50" y="27" class="t-main node-text">CloudTrail</text>
    </g>

    <!-- Security & Management Row 2 -->
    <g transform="translate(30, 735)">
      <rect width="130" height="45" class="node-bg"/>
      <use href="#icon-serverless" x="25" y="22"/>
      <text x="50" y="27" class="t-main node-text">CloudForm.</text>
    </g>
    <g transform="translate(175, 735)">
      <rect width="130" height="45" class="node-bg"/>
      <use href="#icon-security" x="25" y="22"/>
      <text x="50" y="27" class="t-main node-text">Secrets Mgr</text>
    </g>
    <g transform="translate(320, 735)">
      <rect width="130" height="45" class="node-bg"/>
      <use href="#icon-security" x="25" y="22"/>
      <text x="50" y="27" class="t-main node-text">WAF</text>
    </g>

    <!-- Application Integration Row -->
    <text x="30" y="820" class="t-mono" font-size="12" fill="#7C93A8">APPLICATION INTEGRATION</text>
    <g transform="translate(30, 835)">
      <rect width="130" height="45" class="node-bg"/>
      <use href="#icon-network" x="25" y="22"/>
      <text x="50" y="27" class="t-main node-text">SNS / SQS</text>
    </g>
    <g transform="translate(175, 835)">
      <rect width="130" height="45" class="node-bg"/>
      <use href="#icon-pipeline" x="25" y="22"/>
      <text x="50" y="27" class="t-main node-text">CodePipeline</text>
    </g>
  </g>

  <!-- Static Clean Border -->
  <rect x="1" y="1" width="558" height="998" rx="16" fill="none" stroke="#22D3EE" stroke-opacity="0.25" stroke-width="2"/>
</svg>
