<svg viewBox="0 0 1200 900" xmlns="http://www.w3.org/2000/svg" role="img" aria-label="Shubham Gayke Dashboard">
  <defs>
    <!-- Background Gradients -->
    <linearGradient id="bg" x1="0%" y1="0%" x2="100%" y2="100%">
      <stop offset="0%" stop-color="#040910"/>
      <stop offset="50%" stop-color="#071627"/>
      <stop offset="100%" stop-color="#030712"/>
    </linearGradient>
    <linearGradient id="borderGrad" x1="0%" y1="0%" x2="100%" y2="100%">
      <stop offset="0%" stop-color="#22D3EE" stop-opacity="0.3"/>
      <stop offset="100%" stop-color="#38BDF8" stop-opacity="0.05"/>
    </linearGradient>
    <!-- Text Gradients -->
    <linearGradient id="textGrad" x1="0%" y1="0%" x2="100%" y2="0%">
      <stop offset="0%" stop-color="#BAE6FD"/>
      <stop offset="50%" stop-color="#38BDF8"/>
      <stop offset="100%" stop-color="#5EEAD4"/>
    </linearGradient>
    <!-- Glow Filters -->
    <filter id="glow" x="-20%" y="-20%" width="140%" height="140%">
      <feGaussianBlur stdDeviation="4" result="blur"/>
      <feMerge>
        <feMergeNode in="blur"/>
        <feMergeNode in="SourceGraphic"/>
      </feMerge>
    </filter>
  </defs>
  
  <rect width="1200" height="900" fill="url(#bg)"/>
  
  <style>
    .t-main { font-family: 'Segoe UI', Roboto, sans-serif; }
    .t-mono { font-family: 'JetBrains Mono', Consolas, monospace; }
    .txt-title { fill: #E0F2FE; font-size: 14px; font-weight: bold; letter-spacing: 1px; }
    .txt-sub { fill: #7C93A8; font-size: 12px; }
    .box { fill: #04101c; stroke: url(#borderGrad); stroke-width: 1; rx: 12; }
    .box-hover { transition: all 0.3s ease; }
    .box-hover:hover { stroke: #22D3EE; stroke-width: 1.5; filter: url(#glow); }
    .neon-text { fill: #E0F2FE; }
    .chart-path { stroke-dasharray: 1000; stroke-dashoffset: 1000; animation: drawChart 3s forwards ease-in-out; }
    @keyframes drawChart { to { stroke-dashoffset: 0; } }
  </style>

  <!-- MOUNTAINS/GLACIER BACKGROUND -->
  <path d="M 0 900 L 0 850 L 100 830 L 250 870 L 400 810 L 550 880 L 700 780 L 850 860 L 1050 800 L 1200 850 L 1200 900 Z" fill="#0c2338" opacity="0.4"/>
  <path d="M 0 900 L 0 870 L 150 840 L 300 890 L 450 830 L 600 890 L 800 820 L 950 880 L 1150 840 L 1200 870 L 1200 900 Z" fill="#071627" opacity="0.6"/>

  <!-- LEFT SIDEBAR -->
  <g transform="translate(20, 20)">
    <rect width="280" height="830" class="box"/>
    <!-- Status -->
    <rect x="20" y="20" width="120" height="24" rx="12" fill="#7DD3FC" fill-opacity="0.1"/>
    <circle cx="35" cy="32" r="4" fill="#22D3EE"/>
    <text x="48" y="36" class="t-mono" fill="#22D3EE" font-size="10">SYSTEM ONLINE</text>
    
    <!-- Intro -->
    <text x="20" y="80" class="t-main" fill="#7C93A8" font-size="16">Hi, I'm</text>
    <text x="20" y="125" class="t-main" fill="url(#textGrad)" font-weight="900" font-size="42" filter="url(#glow)">SHUBHAM</text>
    <text x="20" y="170" class="t-main" fill="url(#textGrad)" font-weight="900" font-size="42" filter="url(#glow)">GAYKE</text>
    
    <!-- Role -->
    <text x="20" y="210" class="t-main" fill="#BAE6FD" font-size="13">DevOps Engineer • Cloud Architect</text>
    <text x="20" y="235" class="t-main" fill="#22D3EE" font-size="13">AI Automation Specialist</text>

    <!-- Location / Email -->
    <text x="20" y="280" class="t-mono txt-sub">📍 India</text>
    <text x="80" y="280" class="t-mono txt-sub">✉ shubhamgayke9860@gmail.com</text>

    <line x1="20" y1="310" x2="260" y2="310" stroke="#7DD3FC" stroke-opacity="0.2"/>

    <!-- About Me -->
    <text x="20" y="340" class="t-main txt-title">👤 ABOUT ME</text>
    <text x="20" y="370" class="t-main txt-sub" font-size="12">I build scalable, secure and self-healing cloud</text>
    <text x="20" y="390" class="t-main txt-sub" font-size="12">infrastructure with a strong focus on automation,</text>
    <text x="20" y="410" class="t-main txt-sub" font-size="12">observability and developer experience.</text>
    <text x="20" y="440" class="t-main txt-sub" font-size="12">I love turning complex infrastructure into simple,</text>
    <text x="20" y="460" class="t-main txt-sub" font-size="12">reliable and automated systems.</text>

    <!-- Current Focus -->
    <text x="20" y="520" class="t-main txt-title">🎯 CURRENT FOCUS</text>
    <circle cx="25" cy="545" r="3" fill="#22D3EE"/><text x="40" y="550" class="t-main txt-sub">Building AI powered automation systems</text>
    <circle cx="25" cy="570" r="3" fill="#22D3EE"/><text x="40" y="575" class="t-main txt-sub">Designing cloud native platforms</text>
    <circle cx="25" cy="595" r="3" fill="#22D3EE"/><text x="40" y="600" class="t-main txt-sub">Kubernetes &amp; GitOps</text>
    <circle cx="25" cy="620" r="3" fill="#22D3EE"/><text x="40" y="625" class="t-main txt-sub">Infrastructure as Code</text>
    <circle cx="25" cy="645" r="3" fill="#22D3EE"/><text x="40" y="650" class="t-main txt-sub">Observability &amp; Monitoring</text>

    <!-- Button -->
    <rect x="20" y="700" width="240" height="40" rx="8" fill="#7DD3FC" fill-opacity="0.05" stroke="#22D3EE" stroke-width="1"/>
    <text x="140" y="725" class="t-main" fill="#BAE6FD" font-size="13" font-weight="bold" text-anchor="middle">Let's build something amazing 🚀</text>

    <!-- Socials (Placeholders) -->
    <circle cx="45" cy="780" r="16" fill="none" stroke="#38BDF8"/>
    <circle cx="95" cy="780" r="16" fill="none" stroke="#38BDF8"/>
    <circle cx="145" cy="780" r="16" fill="none" stroke="#38BDF8"/>
    <circle cx="195" cy="780" r="16" fill="none" stroke="#38BDF8"/>
  </g>

  <!-- TOP RIGHT: TECH ECOSYSTEM -->
  <g transform="translate(320, 20)">
    <rect width="860" height="200" class="box"/>
    <text x="20" y="30" class="t-main txt-title">&lt;/&gt; TECHNOLOGY ECOSYSTEM</text>
    
    <!-- 6 Columns for tech -->
    <!-- Col 1: Cloud -->
    <g transform="translate(30, 70)">
      <text x="25" y="0" class="t-main txt-sub" text-anchor="middle">CLOUD</text>
      <text x="0" y="30" class="neon-text t-main" font-size="12">☁ AWS</text>
      <text x="0" y="55" class="neon-text t-main" font-size="12">☁ Azure</text>
      <text x="0" y="80" class="neon-text t-main" font-size="12">☁ GCP</text>
    </g>
    <!-- Col 2: Containers -->
    <g transform="translate(150, 70)">
      <text x="35" y="0" class="t-main txt-sub" text-anchor="middle">CONTAINERS</text>
      <text x="0" y="30" class="neon-text t-main" font-size="12">🐳 Docker</text>
      <text x="0" y="55" class="neon-text t-main" font-size="12">⎈ Kubernetes</text>
      <text x="0" y="80" class="neon-text t-main" font-size="12">⎈ Helm</text>
    </g>
    <!-- Col 3: Infra -->
    <g transform="translate(300, 70)">
      <text x="40" y="0" class="t-main txt-sub" text-anchor="middle">INFRASTRUCTURE</text>
      <text x="0" y="30" class="neon-text t-main" font-size="12">🏗 Terraform</text>
      <text x="0" y="55" class="neon-text t-main" font-size="12">⚙ Ansible</text>
      <text x="0" y="80" class="neon-text t-main" font-size="12">☁ CloudFormation</text>
    </g>
    <!-- Col 4: CI/CD -->
    <g transform="translate(470, 70)">
      <text x="30" y="0" class="t-main txt-sub" text-anchor="middle">CI / CD</text>
      <text x="0" y="30" class="neon-text t-main" font-size="12">🔄 GitHub Actions</text>
      <text x="0" y="55" class="neon-text t-main" font-size="12">🔄 Jenkins</text>
      <text x="0" y="80" class="neon-text t-main" font-size="12">🐙 Argo CD</text>
    </g>
    <!-- Col 5: Monitoring -->
    <g transform="translate(610, 70)">
      <text x="30" y="0" class="t-main txt-sub" text-anchor="middle">MONITORING</text>
      <text x="0" y="30" class="neon-text t-main" font-size="12">📊 Prometheus</text>
      <text x="0" y="55" class="neon-text t-main" font-size="12">📈 Grafana</text>
      <text x="0" y="80" class="neon-text t-main" font-size="12">🔍 ELK Stack</text>
    </g>
    <!-- Col 6: AI / Languages -->
    <g transform="translate(740, 70)">
      <text x="30" y="0" class="t-main txt-sub" text-anchor="middle">PROGRAMMING</text>
      <text x="0" y="30" class="neon-text t-main" font-size="12">🐍 Python</text>
      <text x="0" y="55" class="neon-text t-main" font-size="12">🐚 Bash</text>
      <text x="0" y="80" class="neon-text t-main" font-size="12">📜 JavaScript</text>
    </g>
  </g>

  <!-- MIDDLE LEFT: PROJECTS -->
  <g transform="translate(320, 240)">
    <rect width="490" height="390" class="box"/>
    <text x="20" y="30" class="t-main txt-title">📁 FEATURED PROJECTS</text>
    
    <!-- Project 1 -->
    <g transform="translate(20, 50)" class="box-hover">
      <rect width="450" height="95" class="box" fill="#040910"/>
      <text x="20" y="30" class="t-main" fill="#E0F2FE" font-weight="bold" font-size="14">Enterprise Multi-Cloud Platform</text>
      <text x="20" y="55" class="t-main txt-sub" font-size="11">Designed and deployed a multi-cloud platform</text>
      <text x="20" y="70" class="t-main txt-sub" font-size="11">using Terraform, Kubernetes and GitHub Actions.</text>
      <!-- Sparkline -->
      <path class="chart-path" d="M 320 60 Q 330 70 340 50 T 370 30 T 400 40 T 430 20" stroke="#38BDF8" stroke-width="2" fill="none"/>
      <text x="375" y="75" class="t-main" fill="#22D3EE" font-size="20" font-weight="bold" text-anchor="middle">40%</text>
      <text x="375" y="88" class="t-main" fill="#7C93A8" font-size="9" text-anchor="middle">Faster Deployments</text>
    </g>
    <!-- Project 2 -->
    <g transform="translate(20, 160)" class="box-hover">
      <rect width="450" height="95" class="box" fill="#040910"/>
      <text x="20" y="30" class="t-main" fill="#E0F2FE" font-weight="bold" font-size="14">AI Infrastructure Automation</text>
      <text x="20" y="55" class="t-main txt-sub" font-size="11">Built an AI automation system using LangChain,</text>
      <text x="20" y="70" class="t-main txt-sub" font-size="11">MCP and OpenAI to automate cloud operations.</text>
      <!-- Sparkline -->
      <path class="chart-path" d="M 320 70 Q 330 60 340 70 T 370 40 T 400 50 T 430 30" stroke="#C084FC" stroke-width="2" fill="none"/>
      <text x="375" y="75" class="t-main" fill="#E879F9" font-size="20" font-weight="bold" text-anchor="middle">60%</text>
      <text x="375" y="88" class="t-main" fill="#7C93A8" font-size="9" text-anchor="middle">Manual Work Reduced</text>
    </g>
    <!-- Project 3 -->
    <g transform="translate(20, 270)" class="box-hover">
      <rect width="450" height="95" class="box" fill="#040910"/>
      <text x="20" y="30" class="t-main" fill="#E0F2FE" font-weight="bold" font-size="14">Kubernetes Monitoring Stack</text>
      <text x="20" y="55" class="t-main txt-sub" font-size="11">Implemented monitoring stack with Prometheus,</text>
      <text x="20" y="70" class="t-main txt-sub" font-size="11">Grafana, Loki and AlertManager on Kubernetes.</text>
      <!-- Sparkline -->
      <path class="chart-path" d="M 320 60 Q 330 50 340 60 T 370 20 T 400 40 T 430 10" stroke="#22D3EE" stroke-width="2" fill="none"/>
      <text x="375" y="75" class="t-main" fill="#38BDF8" font-size="20" font-weight="bold" text-anchor="middle">99.9%</text>
      <text x="375" y="88" class="t-main" fill="#7C93A8" font-size="9" text-anchor="middle">System Uptime</text>
    </g>
  </g>

  <!-- MIDDLE RIGHT: ARCHITECTURE -->
  <g transform="translate(830, 240)">
    <rect width="350" height="390" class="box"/>
    <text x="20" y="30" class="t-main txt-title">⑃ ARCHITECTURE OVERVIEW</text>
    
    <g transform="translate(20, 50)">
      <!-- Architecture nodes -->
      <rect x="90" y="0" width="130" height="30" rx="15" fill="#04101c" stroke="#22D3EE"/>
      <text x="155" y="20" class="t-main" fill="#E0F2FE" font-size="12" text-anchor="middle">👤 Users</text>
      
      <path d="M 155 30 L 155 50" stroke="#38BDF8" stroke-dasharray="4"/>
      
      <rect x="90" y="50" width="130" height="30" rx="15" fill="#04101c" stroke="#22D3EE"/>
      <text x="155" y="70" class="t-main" fill="#E0F2FE" font-size="12" text-anchor="middle">☁ Cloudflare</text>
      
      <path d="M 155 80 L 155 100" stroke="#38BDF8" stroke-dasharray="4"/>
      
      <rect x="70" y="100" width="170" height="30" rx="4" fill="#04101c" stroke="#38BDF8"/>
      <text x="155" y="120" class="t-main" fill="#BAE6FD" font-size="12" text-anchor="middle">⚖ Load Balancer</text>
      
      <path d="M 155 130 L 155 150" stroke="#38BDF8" stroke-dasharray="4"/>
      
      <!-- Cluster Box -->
      <rect x="10" y="150" width="290" height="135" rx="8" fill="none" stroke="#22D3EE" stroke-width="1" stroke-dasharray="2 4"/>
      <text x="155" y="170" class="t-main" fill="#38BDF8" font-size="12" text-anchor="middle">⎈ Kubernetes Cluster</text>
      
      <rect x="20" y="185" width="80" height="30" rx="4" fill="#04101c" stroke="#5EEAD4"/>
      <text x="60" y="205" class="t-main" fill="#E0F2FE" font-size="10" text-anchor="middle">Microservice</text>
      
      <rect x="115" y="185" width="80" height="30" rx="4" fill="#04101c" stroke="#5EEAD4"/>
      <text x="155" y="205" class="t-main" fill="#E0F2FE" font-size="10" text-anchor="middle">Microservice</text>
      
      <rect x="210" y="185" width="80" height="30" rx="4" fill="#04101c" stroke="#5EEAD4"/>
      <text x="250" y="205" class="t-main" fill="#E0F2FE" font-size="10" text-anchor="middle">Microservice</text>
      
      <rect x="20" y="240" width="100" height="30" rx="4" fill="#04101c" stroke="#3b82f6"/>
      <text x="70" y="260" class="t-main" fill="#E0F2FE" font-size="11" text-anchor="middle">🗄 PostgreSQL</text>
      
      <rect x="190" y="240" width="100" height="30" rx="4" fill="#04101c" stroke="#ef4444"/>
      <text x="240" y="260" class="t-main" fill="#E0F2FE" font-size="11" text-anchor="middle">⚡ Redis</text>
      
      <!-- DB connections -->
      <path d="M 60 215 L 60 240" stroke="#5EEAD4" stroke-dasharray="2"/>
      <path d="M 250 215 L 250 240" stroke="#5EEAD4" stroke-dasharray="2"/>
      
      <rect x="50" y="300" width="210" height="25" rx="4" fill="#04101c" stroke="#38BDF8"/>
      <text x="155" y="316" class="t-main" fill="#BAE6FD" font-size="11" text-anchor="middle">CI/CD - GitHub Actions</text>
    </g>
  </g>

  <!-- BOTTOM RIGHT: ANALYTICS, LANGUAGES, CERTS -->
  <!-- Analytics -->
  <g transform="translate(320, 650)">
    <rect width="280" height="200" class="box"/>
    <text x="20" y="30" class="t-main txt-title">📈 GITHUB ANALYTICS</text>
    
    <g transform="translate(20, 60)">
      <text x="0" y="10" class="t-main txt-sub" font-size="11">Total Stars</text>
      <text x="0" y="40" class="t-main" fill="#E0F2FE" font-size="28" font-weight="bold" filter="url(#glow)">120+</text>
      <path class="chart-path" d="M 0 70 Q 15 50 30 65 T 60 40" stroke="#5EEAD4" stroke-width="2" fill="none"/>
    </g>
    <g transform="translate(100, 60)">
      <text x="0" y="10" class="t-main txt-sub" font-size="11">Total Commits</text>
      <text x="0" y="40" class="t-main" fill="#E0F2FE" font-size="28" font-weight="bold" filter="url(#glow)">1.2K+</text>
      <path class="chart-path" d="M 0 70 Q 15 60 30 50 T 60 30" stroke="#38BDF8" stroke-width="2" fill="none"/>
    </g>
    <g transform="translate(200, 60)">
      <text x="0" y="10" class="t-main txt-sub" font-size="11">Total PRs</text>
      <text x="0" y="40" class="t-main" fill="#E0F2FE" font-size="28" font-weight="bold" filter="url(#glow)">150+</text>
      <path class="chart-path" d="M 0 70 Q 15 80 30 60 T 60 20" stroke="#22D3EE" stroke-width="2" fill="none"/>
    </g>
  </g>

  <!-- Languages -->
  <g transform="translate(620, 650)">
    <rect width="200" height="200" class="box"/>
    <text x="20" y="30" class="t-main txt-title">TOP LANGUAGES</text>
    
    <g transform="translate(60, 110)">
      <!-- SVG Donut Chart -->
      <circle cx="0" cy="0" r="35" fill="none" stroke="#22D3EE" stroke-width="15" stroke-dasharray="90 220" transform="rotate(-90)"/>
      <circle cx="0" cy="0" r="35" fill="none" stroke="#38BDF8" stroke-width="15" stroke-dasharray="50 220" stroke-dashoffset="-90" transform="rotate(-90)"/>
      <circle cx="0" cy="0" r="35" fill="none" stroke="#5EEAD4" stroke-width="15" stroke-dasharray="35 220" stroke-dashoffset="-140" transform="rotate(-90)"/>
      <circle cx="0" cy="0" r="35" fill="none" stroke="#eab308" stroke-width="15" stroke-dasharray="25 220" stroke-dashoffset="-175" transform="rotate(-90)"/>
    </g>
    
    <g transform="translate(125, 65)" class="t-main" font-size="9">
      <rect x="0" y="0" width="8" height="8" fill="#22D3EE" rx="2"/> <text x="15" y="8" fill="#E0F2FE">Python 43%</text>
      <rect x="0" y="18" width="8" height="8" fill="#38BDF8" rx="2"/> <text x="15" y="26" fill="#E0F2FE">JS 21%</text>
      <rect x="0" y="36" width="8" height="8" fill="#5EEAD4" rx="2"/> <text x="15" y="44" fill="#E0F2FE">Shell 15%</text>
      <rect x="0" y="54" width="8" height="8" fill="#eab308" rx="2"/> <text x="15" y="62" fill="#E0F2FE">Other 21%</text>
    </g>
  </g>

  <!-- Certs -->
  <g transform="translate(840, 650)">
    <rect width="340" height="200" class="box"/>
    <text x="20" y="30" class="t-main txt-title">🏅 CERTIFICATIONS</text>
    
    <!-- Grid of certs -->
    <rect x="20" y="60" width="90" height="40" rx="4" fill="none" stroke="#ef4444" stroke-opacity="0.5"/>
    <text x="65" y="76" class="t-main" fill="#ef4444" font-size="10" text-anchor="middle">ORACLE</text>
    <text x="65" y="88" class="t-main txt-sub" font-size="8" text-anchor="middle">Certified Pro</text>
    
    <rect x="120" y="60" width="90" height="40" rx="4" fill="none" stroke="#eab308" stroke-opacity="0.5"/>
    <text x="165" y="76" class="t-main" fill="#eab308" font-size="10" text-anchor="middle">AWS</text>
    <text x="165" y="88" class="t-main txt-sub" font-size="8" text-anchor="middle">Solution Arch</text>

    <rect x="220" y="60" width="90" height="40" rx="4" fill="none" stroke="#3b82f6" stroke-opacity="0.5"/>
    <text x="265" y="76" class="t-main" fill="#3b82f6" font-size="10" text-anchor="middle">AZURE</text>
    <text x="265" y="88" class="t-main txt-sub" font-size="8" text-anchor="middle">AI Challenge</text>
    
    <rect x="20" y="115" width="90" height="40" rx="4" fill="none" stroke="#22c55e" stroke-opacity="0.5"/>
    <text x="65" y="131" class="t-main" fill="#22c55e" font-size="10" text-anchor="middle">HACKERRANK</text>
    <text x="65" y="143" class="t-main txt-sub" font-size="8" text-anchor="middle">SQL Advanced</text>

    <rect x="120" y="115" width="90" height="40" rx="4" fill="none" stroke="#22c55e" stroke-opacity="0.5"/>
    <text x="165" y="131" class="t-main" fill="#22c55e" font-size="10" text-anchor="middle">HACKERRANK</text>
    <text x="165" y="143" class="t-main txt-sub" font-size="8" text-anchor="middle">REST API</text>

    <rect x="220" y="115" width="90" height="40" rx="4" fill="none" stroke="#a855f7" stroke-opacity="0.5"/>
    <text x="265" y="131" class="t-main" fill="#a855f7" font-size="10" text-anchor="middle">MICROSOFT</text>
    <text x="265" y="143" class="t-main txt-sub" font-size="8" text-anchor="middle">Learn</text>
  </g>

  <!-- FOOTER -->
  <text x="600" y="880" class="t-main txt-sub" font-size="14" font-style="italic" text-anchor="middle">"Infrastructure should be invisible, resilient, and self-healing."</text>
</svg>
