<svg xmlns="http://www.w3.org/2000/svg" viewBox="0 0 1500 1020" width="1500" height="1020" font-family="Segoe UI, Arial, sans-serif">
  <defs>
    <linearGradient id="titleGrad" x1="0" y1="0" x2="1" y2="0">
      <stop offset="0%" stop-color="#6fd7ff"/>
      <stop offset="50%" stop-color="#c08bff"/>
      <stop offset="100%" stop-color="#ff8fd0"/>
    </linearGradient>
    <linearGradient id="lineGrad" x1="0" y1="0" x2="0" y2="1">
      <stop offset="0%" stop-color="#2ea8ff"/>
      <stop offset="50%" stop-color="#b15bff"/>
      <stop offset="100%" stop-color="#2be0c8"/>
    </linearGradient>
    <radialGradient id="bgVignette" cx="50%" cy="35%" r="75%">
      <stop offset="0%" stop-color="#0b1830"/>
      <stop offset="100%" stop-color="#01030a"/>
    </radialGradient>
    <linearGradient id="beamGrad" x1="0" y1="0" x2="0" y2="1">
      <stop offset="0%" stop-color="#6fe3ff" stop-opacity="0.55"/>
      <stop offset="100%" stop-color="#6fe3ff" stop-opacity="0"/>
    </linearGradient>
    <linearGradient id="blueCard" x1="0" y1="0" x2="1" y2="0">
      <stop offset="0%" stop-color="#0b1a30"/>
      <stop offset="100%" stop-color="#081120"/>
    </linearGradient>
    <filter id="glow" x="-60%" y="-60%" width="220%" height="220%">
      <feGaussianBlur stdDeviation="6" result="blur"/>
      <feMerge>
        <feMergeNode in="blur"/>
        <feMergeNode in="SourceGraphic"/>
      </feMerge>
    </filter>
    <filter id="glowSoft" x="-60%" y="-60%" width="220%" height="220%">
      <feGaussianBlur stdDeviation="2.5" result="blur"/>
      <feMerge>
        <feMergeNode in="blur"/>
        <feMergeNode in="SourceGraphic"/>
      </feMerge>
    </filter>
    <pattern id="gridPattern" width="46" height="46" patternUnits="userSpaceOnUse">
      <path d="M46 0 L0 0 0 46" fill="none" stroke="#123457" stroke-width="1"/>
    </pattern>

    <!-- ICON SYMBOLS -->
    <symbol id="icon-cap" viewBox="-24 -24 48 48">
      <path d="M-22 -4 L0 -14 L22 -4 L0 6 Z" fill="currentColor"/>
      <rect x="-11" y="6" width="22" height="6" rx="1.5" fill="currentColor" opacity="0.85"/>
      <line x1="17" y1="-1" x2="17" y2="14" stroke="currentColor" stroke-width="2"/>
      <circle cx="17" cy="16.5" r="2.6" fill="currentColor"/>
    </symbol>

    <symbol id="icon-medal" viewBox="-24 -24 48 48">
      <path d="M-8 -16 L-3.5 -1 M8 -16 L3.5 -1" stroke="currentColor" stroke-width="2.4" fill="none"/>
      <circle cx="0" cy="3" r="13.5" fill="none" stroke="currentColor" stroke-width="2.4"/>
      <path d="M0 -5 L2.3 0.3 L7.5 0.9 L3.6 4.3 L4.7 9.5 L0 6.8 L-4.7 9.5 L-3.6 4.3 L-7.5 0.9 L-2.3 0.3 Z" fill="currentColor"/>
    </symbol>

    <symbol id="icon-doc" viewBox="-24 -24 48 48">
      <path d="M-14 -18 H5 L14 -9 V18 H-14 Z" fill="none" stroke="currentColor" stroke-width="2.2"/>
      <path d="M5 -18 V-9 H14" fill="none" stroke="currentColor" stroke-width="2.2"/>
      <line x1="-8" y1="-2" x2="8" y2="-2" stroke="currentColor" stroke-width="1.6"/>
      <line x1="-8" y1="4" x2="8" y2="4" stroke="currentColor" stroke-width="1.6"/>
      <line x1="-8" y1="10" x2="2" y2="10" stroke="currentColor" stroke-width="1.6"/>
    </symbol>

    <symbol id="icon-building" viewBox="-110 -115 220 220">
      <path d="M-80 -8 L0 -58 L80 -8" fill="none" stroke="currentColor" stroke-width="2.4"/>
      <rect x="-72" y="-8" width="144" height="88" fill="none" stroke="currentColor" stroke-width="2.4"/>
      <rect x="-16" y="-98" width="32" height="46" fill="none" stroke="currentColor" stroke-width="2.4"/>
      <circle cx="0" cy="-92" r="10" fill="none" stroke="currentColor" stroke-width="2"/>
      <line x1="0" y1="-92" x2="0" y2="-98" stroke="currentColor" stroke-width="1.6"/>
      <line x1="0" y1="-92" x2="4" y2="-89" stroke="currentColor" stroke-width="1.6"/>
      <line x1="-52" y1="-8" x2="-52" y2="66" stroke="currentColor" stroke-width="1.3" opacity="0.55"/>
      <line x1="-26" y1="-8" x2="-26" y2="66" stroke="currentColor" stroke-width="1.3" opacity="0.55"/>
      <line x1="26" y1="-8" x2="26" y2="66" stroke="currentColor" stroke-width="1.3" opacity="0.55"/>
      <line x1="52" y1="-8" x2="52" y2="66" stroke="currentColor" stroke-width="1.3" opacity="0.55"/>
      <rect x="-13" y="34" width="26" height="46" fill="none" stroke="currentColor" stroke-width="2"/>
      <line x1="-90" y1="80" x2="90" y2="80" stroke="currentColor" stroke-width="2"/>
      <line x1="-98" y1="90" x2="98" y2="90" stroke="currentColor" stroke-width="2"/>
    </symbol>

    <symbol id="icon-trophy" viewBox="-120 -130 240 240">
      <g stroke="currentColor" fill="none" stroke-width="3">
        <path d="M-32 -34 H32 V-10 C32 18 17 34 0 34 C-17 34 -32 18 -32 -10 Z"/>
        <path d="M-32 -28 C-56 -28 -56 8 -30 10"/>
        <path d="M32 -28 C56 -28 56 8 30 10"/>
        <line x1="0" y1="34" x2="0" y2="54"/>
        <line x1="-36" y1="-34" x2="36" y2="-34"/>
      </g>
      <rect x="-22" y="54" width="44" height="11" rx="2" fill="currentColor" opacity="0.9"/>
      <g fill="currentColor">
        <path d="M0 -70 l3 7 7.5 .8 -5.6 5 1.6 7.4 -6.5 -3.8 -6.5 3.8 1.6 -7.4 -5.6 -5 7.5 -.8 Z"/>
        <path d="M-46 -56 l2.3 5.3 5.7 .6 -4.2 3.8 1.2 5.6 -5 -2.9 -5 2.9 1.2 -5.6 -4.2 -3.8 5.7 -.6 Z"/>
        <path d="M46 -56 l2.3 5.3 5.7 .6 -4.2 3.8 1.2 5.6 -5 -2.9 -5 2.9 1.2 -5.6 -4.2 -3.8 5.7 -.6 Z"/>
      </g>
      <g fill="currentColor" opacity="0.85">
        <ellipse cx="-58" cy="12" rx="8" ry="4" transform="rotate(-20 -58 12)"/>
        <ellipse cx="-64" cy="28" rx="8" ry="4" transform="rotate(-45 -64 28)"/>
        <ellipse cx="-58" cy="44" rx="8" ry="4" transform="rotate(-70 -58 44)"/>
        <ellipse cx="58" cy="12" rx="8" ry="4" transform="rotate(20 58 12)"/>
        <ellipse cx="64" cy="28" rx="8" ry="4" transform="rotate(45 64 28)"/>
        <ellipse cx="58" cy="44" rx="8" ry="4" transform="rotate(70 58 44)"/>
      </g>
    </symbol>

    <symbol id="icon-book" viewBox="-110 -90 220 180">
      <path d="M0 -46 C -55 -58 -92 -42 -92 -30 L -92 44 C -55 32 -22 42 0 54 Z" fill="none" stroke="currentColor" stroke-width="2.6"/>
      <path d="M0 -46 C 55 -58 92 -42 92 -30 L 92 44 C 55 32 22 42 0 54 Z" fill="none" stroke="currentColor" stroke-width="2.6"/>
      <line x1="0" y1="-46" x2="0" y2="54" stroke="currentColor" stroke-width="2"/>
      <g stroke="currentColor" stroke-width="1.4" opacity="0.65">
        <line x1="-72" y1="-20" x2="-24" y2="-26"/>
        <line x1="-72" y1="-6" x2="-24" y2="-12"/>
        <line x1="-72" y1="8" x2="-24" y2="2"/>
        <line x1="24" y1="-26" x2="72" y2="-20"/>
        <line x1="24" y1="-12" x2="72" y2="-6"/>
        <line x1="24" y1="2" x2="72" y2="8"/>
      </g>
    </symbol>

    <symbol id="icon-chevron" viewBox="-10 -10 20 20">
      <path d="M-5 -8 L5 0 L-5 8" fill="none" stroke="currentColor" stroke-width="3" stroke-linecap="round" stroke-linejoin="round"/>
    </symbol>
  </defs>

  <!-- BACKGROUND -->
  <rect width="1500" height="1020" fill="#040810"/>
  <rect width="1500" height="1020" fill="url(#bgVignette)"/>
  <rect width="1500" height="1020" fill="url(#gridPattern)" opacity="0.35"/>

  <!-- corner brackets -->
  <g stroke="#2a7fa8" stroke-width="1.5" fill="none" opacity="0.5">
    <path d="M18 70 L18 18 L70 18"/>
    <path d="M1482 70 L1482 18 L1430 18"/>
    <path d="M18 950 L18 1002 L70 1002"/>
    <path d="M1482 950 L1482 1002 L1430 1002"/>
  </g>

  <!-- world globe decorative, top right -->
  <g transform="translate(1420,235)" opacity="0.55">
    <circle r="95" fill="none" stroke="#5fb8e8" stroke-width="1" opacity="0.35"/>
    <circle r="70" fill="none" stroke="#5fb8e8" stroke-width="1" opacity="0.25"/>
    <g fill="#7fd6ff">
      <circle cx="-30" cy="-20" r="2"><animate attributeName="opacity" values="0.9;0.15;0.9" dur="3s" repeatCount="indefinite"/></circle>
      <circle cx="18" cy="10" r="2"><animate attributeName="opacity" values="0.2;0.9;0.2" dur="2.4s" repeatCount="indefinite"/></circle>
      <circle cx="-10" cy="35" r="2"><animate attributeName="opacity" values="0.9;0.2;0.9" dur="2.8s" repeatCount="indefinite" begin="0.6s"/></circle>
      <circle cx="40" cy="-30" r="2"><animate attributeName="opacity" values="0.3;1;0.3" dur="3.2s" repeatCount="indefinite" begin="0.3s"/></circle>
    </g>
    <animateTransform attributeName="transform" type="rotate" from="0" to="360" additive="sum" dur="60s" repeatCount="indefinite"/>
  </g>

  <!-- HEADER -->
  <g transform="translate(120,112)">
    <circle r="72" fill="none" stroke="#2ea8ff" stroke-width="1.5" stroke-dasharray="4 7" opacity="0.6">
      <animateTransform attributeName="transform" type="rotate" from="0 0 0" to="360 0 0" dur="16s" repeatCount="indefinite"/>
    </circle>
    <circle r="56" fill="none" stroke="#6fd7ff" stroke-width="2" opacity="0.85"/>
    <circle r="40" fill="#081428" stroke="#6fd7ff" stroke-width="2.4"/>
    <use href="#icon-cap" x="-22" y="-22" width="44" height="44" style="color:#bfe8ff"/>
  </g>

  <text x="210" y="97" font-size="58" font-weight="800" letter-spacing="2" fill="url(#titleGrad)">EDUCATION</text>
  <text x="213" y="130" font-size="15" letter-spacing="3" fill="#8fd0ff" font-family="Consolas, Menlo, monospace">&#8592; BUILDING KNOWLEDGE. SHAPING FUTURE. &#8594;</text>
  <g fill="#5fb8e8" opacity="0.7">
    <circle cx="660" cy="126" r="2.2"/><circle cx="672" cy="126" r="2.2"/><circle cx="684" cy="126" r="2.2"/><circle cx="696" cy="126" r="2.2"/>
  </g>

  <!-- SCANNING -->
  <text x="1150" y="66" font-size="17" letter-spacing="2" fill="#8fe6ff" font-family="Consolas, Menlo, monospace">SCANNING....</text>
  <rect x="1150" y="80" width="230" height="10" rx="5" fill="none" stroke="#2ea8ff" stroke-width="1.5"/>
  <rect x="1153" y="82.5" width="0" height="5" rx="2.5" fill="#6fe3ff">
    <animate attributeName="width" values="0;224;224;0" keyTimes="0;0.55;0.9;1" dur="4.5s" repeatCount="indefinite"/>
  </rect>
  <text x="1400" y="93" font-size="16" fill="#eaf6ff" font-family="Consolas, Menlo, monospace">100%</text>

  <!-- TIMELINE LINE -->
  <line x1="215" y1="232" x2="215" y2="850" stroke="url(#lineGrad)" stroke-width="5" stroke-linecap="round" stroke-dasharray="14 10">
    <animate attributeName="stroke-dashoffset" from="0" to="-48" dur="1.1s" repeatCount="indefinite"/>
  </line>

  <!-- ===================== NODE 1 : B-TECH (blue) ===================== -->
  <g>
    <circle cx="215" cy="287" r="44" fill="none" stroke="#2ea8ff" stroke-width="1.5" opacity="0.5">
      <animate attributeName="r" values="40;49;40" dur="2.4s" repeatCount="indefinite" begin="0s"/>
      <animate attributeName="opacity" values="0.55;0.1;0.55" dur="2.4s" repeatCount="indefinite" begin="0s"/>
    </circle>
    <circle cx="215" cy="287" r="34" fill="#050c18" stroke="#2ea8ff" stroke-width="2.6"/>
    <use href="#icon-cap" x="193" y="265" width="44" height="44" style="color:#bfe4ff"/>
    <line x1="241" y1="287" x2="470" y2="287" stroke="#2ea8ff" stroke-width="1.5" stroke-dasharray="4 5" opacity="0.7"/>
    <rect x="346" y="283" width="8" height="8" fill="#2ea8ff" opacity="0.9" transform="rotate(45 350 287)"/>
  </g>

  <g opacity="0" transform="translate(46,0)">
    <animate attributeName="opacity" from="0" to="1" dur="0.9s" begin="0.15s" fill="freeze"/>
    <animateTransform attributeName="transform" type="translate" from="46 0" to="0 0" dur="0.9s" begin="0.15s" fill="freeze"/>

    <rect x="470" y="192" width="860" height="193" rx="14" fill="#081120" fill-opacity="0.92" stroke="#2ea8ff" stroke-width="1.6" filter="url(#glow)"/>
    <path d="M1290 202 L1310 202 M1300 202 L1320 222" stroke="#6fd7ff" stroke-width="2" opacity="0.8"/>

    <text x="500" y="238" font-size="25" font-weight="700" fill="#f2f8ff">B-TECH IN COMPUTER SCIENCE ENGINEERING</text>

    <g transform="translate(502,258)">
      <path d="M-9 6 L0 -2 L9 6 M-6 6 V-1 H6 V6" fill="none" stroke="#6fd7ff" stroke-width="1.6"/>
    </g>
    <text x="522" y="263" font-size="17" fill="#b9d9ff">Dr. Babasaheb Ambedkar Technological University</text>

    <rect x="500" y="298" width="180" height="42" rx="7" fill="#08192f" stroke="#2ea8ff" stroke-width="1.4"/>
    <text x="516" y="325" font-size="16" font-weight="700" fill="#9fd3ff">CGPA:</text>
    <text x="590" y="326" font-size="19" font-weight="800" fill="#ffffff">8.12/10</text>

    <use href="#icon-building" x="1080" y="192" width="240" height="193" style="color:#3fa8ff" opacity="0.85"/>
  </g>

  <!-- ===================== NODE 2 : DIPLOMA (purple) ===================== -->
  <g>
    <circle cx="215" cy="532" r="44" fill="none" stroke="#b15bff" stroke-width="1.5" opacity="0.5">
      <animate attributeName="r" values="40;49;40" dur="2.4s" repeatCount="indefinite" begin="0.5s"/>
      <animate attributeName="opacity" values="0.55;0.1;0.55" dur="2.4s" repeatCount="indefinite" begin="0.5s"/>
    </circle>
    <circle cx="215" cy="532" r="34" fill="#0c0818" stroke="#b15bff" stroke-width="2.6"/>
    <use href="#icon-medal" x="193" y="510" width="44" height="44" style="color:#ecc7ff"/>
    <line x1="241" y1="532" x2="470" y2="532" stroke="#b15bff" stroke-width="1.5" stroke-dasharray="4 5" opacity="0.7"/>
    <rect x="346" y="528" width="8" height="8" fill="#b15bff" opacity="0.9" transform="rotate(45 350 532)"/>
  </g>

  <g opacity="0" transform="translate(46,0)">
    <animate attributeName="opacity" from="0" to="1" dur="0.9s" begin="0.45s" fill="freeze"/>
    <animateTransform attributeName="transform" type="translate" from="46 0" to="0 0" dur="0.9s" begin="0.45s" fill="freeze"/>

    <rect x="470" y="415" width="860" height="233" rx="14" fill="#120c22" fill-opacity="0.92" stroke="#b15bff" stroke-width="1.6" filter="url(#glow)"/>
    <path d="M1290 425 L1310 425 M1300 425 L1320 445" stroke="#e79bff" stroke-width="2" opacity="0.8"/>

    <text x="500" y="461" font-size="25" font-weight="700" fill="#f6ecff">DIPLOMA IN COMPUTER ENGINEERING</text>

    <g transform="translate(502,481)">
      <path d="M-9 6 L0 -2 L9 6 M-6 6 V-1 H6 V6" fill="none" stroke="#e79bff" stroke-width="1.6"/>
    </g>
    <text x="522" y="486" font-size="17" fill="#d9c2ff">Maharashtra State Board of Technical Education (MSBTE)</text>

    <rect x="500" y="521" width="180" height="42" rx="7" fill="#190f2c" stroke="#b15bff" stroke-width="1.4"/>
    <text x="516" y="548" font-size="16" font-weight="700" fill="#d3a8ff">Score:</text>
    <text x="590" y="549" font-size="19" font-weight="800" fill="#ffffff">92.17%</text>

    <rect x="500" y="581" width="560" height="42" rx="7" fill="#1a0f2e" stroke="#ff6bcf" stroke-width="1.3"/>
    <use href="#icon-trophy" x="510" y="592" width="20" height="20" style="color:#ffd76a"/>
    <text x="545" y="608" font-size="15" font-weight="700" letter-spacing="0.5" fill="#ffb3ea">1ST RANK IN POLYTECHNIC Final Year</text>
    <g style="color:#ff6bcf">
      <use href="#icon-chevron" x="1005" y="592" width="18" height="18">
        <animate attributeName="opacity" values="0.2;1;0.2" dur="1.1s" repeatCount="indefinite" begin="0s"/>
      </use>
      <use href="#icon-chevron" x="1018" y="592" width="18" height="18">
        <animate attributeName="opacity" values="0.2;1;0.2" dur="1.1s" repeatCount="indefinite" begin="0.2s"/>
      </use>
      <use href="#icon-chevron" x="1031" y="592" width="18" height="18">
        <animate attributeName="opacity" values="0.2;1;0.2" dur="1.1s" repeatCount="indefinite" begin="0.4s"/>
      </use>
    </g>

    <use href="#icon-trophy" x="1085" y="425" width="220" height="200" style="color:#c56bff" opacity="0.9"/>
  </g>

  <!-- ===================== NODE 3 : SSC (teal) ===================== -->
  <g>
    <circle cx="215" cy="762" r="44" fill="none" stroke="#2be0c8" stroke-width="1.5" opacity="0.5">
      <animate attributeName="r" values="40;49;40" dur="2.4s" repeatCount="indefinite" begin="1s"/>
      <animate attributeName="opacity" values="0.55;0.1;0.55" dur="2.4s" repeatCount="indefinite" begin="1s"/>
    </circle>
    <circle cx="215" cy="762" r="34" fill="#051815" stroke="#2be0c8" stroke-width="2.6"/>
    <use href="#icon-doc" x="193" y="740" width="44" height="44" style="color:#b6fff2"/>
    <line x1="241" y1="762" x2="470" y2="762" stroke="#2be0c8" stroke-width="1.5" stroke-dasharray="4 5" opacity="0.7"/>
    <rect x="346" y="758" width="8" height="8" fill="#2be0c8" opacity="0.9" transform="rotate(45 350 762)"/>
  </g>

  <g opacity="0" transform="translate(46,0)">
    <animate attributeName="opacity" from="0" to="1" dur="0.9s" begin="0.75s" fill="freeze"/>
    <animateTransform attributeName="transform" type="translate" from="46 0" to="0 0" dur="0.9s" begin="0.75s" fill="freeze"/>

    <rect x="470" y="678" width="860" height="165" rx="14" fill="#071f1c" fill-opacity="0.92" stroke="#2be0c8" stroke-width="1.6" filter="url(#glow)"/>
    <path d="M1290 688 L1310 688 M1300 688 L1320 708" stroke="#7fffe0" stroke-width="2" opacity="0.8"/>

    <text x="500" y="724" font-size="25" font-weight="700" fill="#eefffb">SECONDARY SCHOOL CERTIFICATE (SSC)</text>

    <g transform="translate(502,744)">
      <path d="M-9 6 L0 -2 L9 6 M-6 6 V-1 H6 V6" fill="none" stroke="#7fffe0" stroke-width="1.6"/>
    </g>
    <text x="522" y="749" font-size="17" fill="#b3f2e8">Maharashtra State Board of Secondary &amp; Higher Secondary Education, Pune</text>

    <rect x="500" y="784" width="180" height="42" rx="7" fill="#052622" stroke="#2be0c8" stroke-width="1.4"/>
    <text x="516" y="811" font-size="16" font-weight="700" fill="#7fe9d8">Score:</text>
    <text x="590" y="812" font-size="19" font-weight="800" fill="#ffffff">86.40%</text>

    <use href="#icon-book" x="1090" y="695" width="210" height="140" style="color:#3fe0c8" opacity="0.9"/>
  </g>

  <!-- BOTTOM HOLOGRAM -->
  <path d="M200 850 L230 850 L285 975 L145 975 Z" fill="url(#beamGrad)">
    <animate attributeName="opacity" values="0.9;0.4;0.9" dur="2.6s" repeatCount="indefinite"/>
  </path>
  <g stroke="#4fe0ff" fill="none">
    <ellipse cx="215" cy="975" rx="20" ry="7" opacity="0.8">
      <animate attributeName="rx" values="20;140;20" dur="2.4s" repeatCount="indefinite" begin="0s"/>
      <animate attributeName="ry" values="7;40;7" dur="2.4s" repeatCount="indefinite" begin="0s"/>
      <animate attributeName="opacity" values="0.85;0;0.85" dur="2.4s" repeatCount="indefinite" begin="0s"/>
    </ellipse>
    <ellipse cx="215" cy="975" rx="20" ry="7" opacity="0.8">
      <animate attributeName="rx" values="20;140;20" dur="2.4s" repeatCount="indefinite" begin="0.8s"/>
      <animate attributeName="ry" values="7;40;7" dur="2.4s" repeatCount="indefinite" begin="0.8s"/>
      <animate attributeName="opacity" values="0.85;0;0.85" dur="2.4s" repeatCount="indefinite" begin="0.8s"/>
    </ellipse>
    <ellipse cx="215" cy="975" rx="20" ry="7" opacity="0.8">
      <animate attributeName="rx" values="20;140;20" dur="2.4s" repeatCount="indefinite" begin="1.6s"/>
      <animate attributeName="ry" values="7;40;7" dur="2.4s" repeatCount="indefinite" begin="1.6s"/>
      <animate attributeName="opacity" values="0.85;0;0.85" dur="2.4s" repeatCount="indefinite" begin="1.6s"/>
    </ellipse>
  </g>

  <text x="40" y="990" font-size="14" fill="#4fe0ff" font-family="Consolas, Menlo, monospace" letter-spacing="1">SYSTEM OK</text>
  <g fill="none" stroke="#4fe0ff" stroke-width="1">
    <animate attributeName="opacity" values="1;0.25;1" dur="1.8s" repeatCount="indefinite"/>
  </g>
  <circle cx="30" cy="985" r="3" fill="#4fe0ff">
    <animate attributeName="opacity" values="1;0.2;1" dur="1.6s" repeatCount="indefinite"/>
  </circle>

  <!-- DATA SYNC bottom right -->
  <text x="1360" y="935" font-size="14" letter-spacing="1.5" fill="#7fe0ff" font-family="Consolas, Menlo, monospace" text-anchor="end">DATA SYNC</text>
  <g fill="#3fe0c8">
    <rect x="1300" y="965" width="7" height="20" >
      <animate attributeName="height" values="20;38;10;28;20" dur="2s" repeatCount="indefinite" begin="0s"/>
      <animate attributeName="y" values="965;947;975;957;965" dur="2s" repeatCount="indefinite" begin="0s"/>
    </rect>
    <rect x="1312" y="965" width="7" height="14">
      <animate attributeName="height" values="14;32;8;36;14" dur="2s" repeatCount="indefinite" begin="0.3s"/>
      <animate attributeName="y" values="965;953;977;949;965" dur="2s" repeatCount="indefinite" begin="0.3s"/>
    </rect>
    <rect x="1324" y="965" width="7" height="26">
      <animate attributeName="height" values="26;10;34;16;26" dur="2s" repeatCount="indefinite" begin="0.6s"/>
      <animate attributeName="y" values="965;975;947;965;965" dur="2s" repeatCount="indefinite" begin="0.6s"/>
    </rect>
    <rect x="1336" y="965" width="7" height="18">
      <animate attributeName="height" values="18;34;12;30;18" dur="2s" repeatCount="indefinite" begin="0.9s"/>
      <animate attributeName="y" values="965;951;973;955;965" dur="2s" repeatCount="indefinite" begin="0.9s"/>
    </rect>
    <rect x="1348" y="965" width="7" height="30">
      <animate attributeName="height" values="30;14;22;36;30" dur="2s" repeatCount="indefinite" begin="1.2s"/>
      <animate attributeName="y" values="965;971;963;949;965" dur="2s" repeatCount="indefinite" begin="1.2s"/>
    </rect>
  </g>
  <g transform="translate(1300,995)">
    <rect x="0" y="0" width="10" height="8" rx="1.5" fill="none" stroke="#3fe0c8" stroke-width="1.3"/>
    <path d="M2 0 V-4 a3 3 0 0 1 6 0 V0" fill="none" stroke="#3fe0c8" stroke-width="1.3"/>
  </g>
  <text x="1362" y="1002" font-size="10.5" fill="#3fe0c8" opacity="0.85" font-family="Consolas, Menlo, monospace" text-anchor="end" letter-spacing="1">SECURE CONNECTED</text>

</svg>
