<svg viewBox="0 0 1300 800" xmlns="http://www.w3.org/2000/svg" font-family="Inter, -apple-system, BlinkMacSystemFont, 'Segoe UI', Roboto, Helvetica, Arial, sans-serif">
<defs>
  <radialGradient id="bgGrad" cx="50%" cy="50%" r="70%">
    <stop offset="0%" stop-color="#0a101f"/>
    <stop offset="100%" stop-color="#03050a"/>
  </radialGradient>
  <linearGradient id="glassGrad" x1="0%" y1="0%" x2="100%" y2="100%">
    <stop offset="0%" stop-color="#ffffff" stop-opacity="0.05"/>
    <stop offset="100%" stop-color="#ffffff" stop-opacity="0.01"/>
  </linearGradient>
  <filter id="softShadow" x="-10%" y="-10%" width="120%" height="120%">
    <feDropShadow dx="0" dy="8" stdDeviation="15" flood-color="#000000" flood-opacity="0.5"/>
  </filter>
  <filter id="blurFilter" x="-50%" y="-50%" width="200%" height="200%">
    <feGaussianBlur stdDeviation="50"/>
  </filter>
  <filter id="textGlow" x="-20%" y="-20%" width="140%" height="140%">
    <feGaussianBlur stdDeviation="2" result="blur"/>
    <feMerge>
      <feMergeNode in="blur"/>
      <feMergeNode in="SourceGraphic"/>
    </feMerge>
  </filter>
  
  <pattern id="grid" width="40" height="40" patternUnits="userSpaceOnUse">
    <path d="M 40 0 L 0 0 0 40" fill="none" stroke="#ffffff" stroke-opacity="0.04" stroke-width="1"/>
  </pattern>
</defs>

<style>
  .mono { font-family: 'JetBrains Mono', 'Fira Code', Consolas, monospace; }
  .title { font-weight: 800; font-size: 26px; fill: #ffffff; letter-spacing: 1.5px; filter: url(#textGlow); }
  .subtitle { font-weight: 700; font-size: 15px; letter-spacing: 2px; }
  .item-text { font-weight: 700; font-size: 18px; fill: #ffffff; filter: url(#textGlow); animation: colorShift 5s infinite alternate ease-in-out; }
  
  @keyframes colorShift {
    0% { fill: #ffffff; }
    33% { fill: #38bdf8; }
    66% { fill: #c084fc; }
    100% { fill: #f472b6; }
  }

  .glass-card { fill: url(#glassGrad); stroke: rgba(255,255,255,0.1); stroke-width: 1.5; rx: 16; filter: url(#softShadow); }
  .cursor { animation: blink 1s step-end infinite; }
  @keyframes blink { 0%, 49% { opacity: 1; } 50%, 100% { opacity: 0; } }
  
  /* Loading Sequence */
  .dashboard { opacity: 0; animation: fadeIn 1.5s ease forwards; animation-delay: 2s; }
  .system-load { animation: fadeOut 1.5s ease forwards; animation-delay: 2s; }
  @keyframes fadeIn { to { opacity: 1; } }
  @keyframes fadeOut { to { opacity: 0; pointer-events: none; } }
</style>

<!-- Background -->
<rect width="1300" height="800" fill="url(#bgGrad)"/>

<!-- Ambient Smoke Animation (Pink and Glacier Blue) -->
<circle cx="200" cy="150" r="280" fill="#f472b6" opacity="0.10" filter="url(#blurFilter)">
  <animate attributeName="cx" values="100; 500; 100" dur="15s" repeatCount="indefinite"/>
  <animate attributeName="cy" values="100; 700; 100" dur="20s" repeatCount="indefinite"/>
</circle>
<circle cx="1100" cy="500" r="320" fill="#22d3ee" opacity="0.10" filter="url(#blurFilter)">
  <animate attributeName="cx" values="800; 1300; 800" dur="18s" repeatCount="indefinite"/>
  <animate attributeName="cy" values="300; 700; 300" dur="22s" repeatCount="indefinite"/>
</circle>

<!-- Animated Grid -->
<rect x="-40" y="-40" width="1380" height="880" fill="url(#grid)">
  <animateTransform attributeName="transform" type="translate" values="0,0; -40,40" dur="8s" repeatCount="indefinite" />
</rect>

<g class="dashboard">

<!-- Header -->
<text x="50" y="80" class="mono title">TECH_ARSENAL<tspan fill="#38bdf8">.init()</tspan></text>
<rect x="50" y="105" width="1200" height="1.5" fill="#ffffff" opacity="0.15"/>
<circle cx="1230" cy="72" r="5" fill="#10b981">
  <animate attributeName="opacity" values="0.4;1;0.4" dur="2s" repeatCount="indefinite"/>
</circle>
<text x="1245" y="76" class="mono" font-size="13" font-weight="bold" fill="#10b981" letter-spacing="1">SYSTEM ONLINE</text>



<g transform="translate(50, 150)">
  <rect width="220" height="240" class="glass-card"/>
  <rect x="20" y="25" width="12" height="12" rx="3" fill="#fb923c" opacity="0.3"/>
  <rect x="20" y="25" width="12" height="12" rx="3" fill="none" stroke="#fb923c" stroke-width="2"/>
  <text x="42" y="36" class="subtitle" fill="#fb923c">CLOUD</text>
  <line x1="20" y1="55" x2="200" y2="55" stroke="#ffffff" stroke-opacity="0.1"/>


  <g transform="translate(20, 71)">
    <g width="20" height="20" color="#fb923c" opacity="1.0">
      <svg width="20" height="20" viewBox="0 0 24 24">
        <title>Amazon AWS</title><path fill="currentColor" d="M6.763 10.036c0 .296.032.535.088.71.064.176.144.368.256.576.04.063.056.127.056.183 0 .08-.048.16-.152.24l-.503.335a.383.383 0 0 1-.208.072c-.08 0-.16-.04-.239-.112a2.47 2.47 0 0 1-.287-.375 6.18 6.18 0 0 1-.248-.471c-.622.734-1.405 1.101-2.347 1.101-.67 0-1.205-.191-1.596-.574-.391-.384-.59-.894-.59-1.533 0-.678.239-1.23.726-1.644.487-.415 1.133-.623 1.955-.623.272 0 .551.024.846.064.296.04.6.104.918.176v-.583c0-.607-.127-1.03-.375-1.277-.255-.248-.686-.367-1.3-.367-.28 0-.568.031-.863.103-.295.072-.583.16-.862.272a2.287 2.287 0 0 1-.28.104.488.488 0 0 1-.127.023c-.112 0-.168-.08-.168-.247v-.391c0-.128.016-.224.056-.28a.597.597 0 0 1 .224-.167c.279-.144.614-.264 1.005-.36a4.84 4.84 0 0 1 1.246-.151c.95 0 1.644.216 2.091.647.439.43.662 1.085.662 1.963v2.586zm-3.24 1.214c.263 0 .534-.048.822-.144.287-.096.543-.271.758-.51.128-.152.224-.32.272-.512.047-.191.08-.423.08-.694v-.335a6.66 6.66 0 0 0-.735-.136 6.02 6.02 0 0 0-.75-.048c-.535 0-.926.104-1.19.32-.263.215-.39.518-.39.917 0 .375.095.655.295.846.191.2.47.296.838.296zm6.41.862c-.144 0-.24-.024-.304-.08-.064-.048-.12-.16-.168-.311L7.586 5.55a1.398 1.398 0 0 1-.072-.32c0-.128.064-.2.191-.2h.783c.151 0 .255.025.31.08.065.048.113.16.16.312l1.342 5.284 1.245-5.284c.04-.16.088-.264.151-.312a.549.549 0 0 1 .32-.08h.638c.152 0 .256.025.32.08.063.048.12.16.151.312l1.261 5.348 1.381-5.348c.048-.16.104-.264.16-.312a.52.52 0 0 1 .311-.08h.743c.127 0 .2.065.2.2 0 .04-.009.08-.017.128a1.137 1.137 0 0 1-.056.2l-1.923 6.17c-.048.16-.104.263-.168.311a.51.51 0 0 1-.303.08h-.687c-.151 0-.255-.024-.32-.08-.063-.056-.119-.16-.15-.32l-1.238-5.148-1.23 5.14c-.04.16-.087.264-.15.32-.065.056-.177.08-.32.08zm10.256.215c-.415 0-.83-.048-1.229-.143-.399-.096-.71-.2-.918-.32-.128-.071-.215-.151-.247-.223a.563.563 0 0 1-.048-.224v-.407c0-.167.064-.247.183-.247.048 0 .096.008.144.024.048.016.12.048.2.08.271.12.566.215.878.279.319.064.63.096.95.096.502 0 .894-.088 1.165-.264a.86.86 0 0 0 .415-.758.777.777 0 0 0-.215-.559c-.144-.151-.416-.287-.807-.415l-1.157-.36c-.583-.183-1.014-.454-1.277-.813a1.902 1.902 0 0 1-.4-1.158c0-.335.073-.63.216-.886.144-.255.335-.479.575-.654.24-.184.51-.32.83-.415.32-.096.655-.136 1.006-.136.175 0 .359.008.535.032.183.024.35.056.518.088.16.04.312.08.455.127.144.048.256.096.336.144a.69.69 0 0 1 .24.2.43.43 0 0 1 .071.263v.375c0 .168-.064.256-.184.256a.83.83 0 0 1-.303-.096 3.652 3.652 0 0 0-1.532-.311c-.455 0-.815.071-1.062.223-.248.152-.375.383-.375.71 0 .224.08.416.24.567.159.152.454.304.877.44l1.134.358c.574.184.99.44 1.237.767.247.327.367.702.367 1.117 0 .343-.072.655-.207.926-.144.272-.336.511-.583.703-.248.2-.543.343-.886.447-.36.111-.734.167-1.142.167zM21.698 16.207c-2.626 1.94-6.442 2.969-9.722 2.969-4.598 0-8.74-1.7-11.87-4.526-.247-.223-.024-.527.272-.351 3.384 1.963 7.559 3.153 11.877 3.153 2.914 0 6.114-.607 9.06-1.852.439-.2.814.287.383.607zM22.792 14.961c-.336-.43-2.22-.207-3.074-.103-.255.032-.295-.192-.063-.36 1.5-1.053 3.967-.75 4.254-.399.287.36-.08 2.826-1.485 4.007-.215.184-.423.088-.327-.151.32-.79 1.03-2.57.695-2.994z"/>
      </svg>
    </g>
    <text x="34" y="15" class="item-text">AWS</text>
  </g>


  <g transform="translate(20, 109)">
    <g width="20" height="20" color="#fb923c" opacity="1.0">
      <svg width="20" height="20" viewBox="0 0 24 24">
        <title>Microsoft Azure</title><path fill="currentColor" d="M22.379 23.343a1.62 1.62 0 0 0 1.536-2.14v.002L17.35 1.76A1.62 1.62 0 0 0 15.816.657H8.184A1.62 1.62 0 0 0 6.65 1.76L.086 21.204a1.62 1.62 0 0 0 1.536 2.139h4.741a1.62 1.62 0 0 0 1.535-1.103l.977-2.892 4.947 3.675c.28.208.618.32.966.32m-3.084-12.531 3.624 10.739a.54.54 0 0 1-.51.713v-.001h-.03a.54.54 0 0 1-.322-.106l-9.287-6.9h4.853m6.313 7.006c.116-.326.13-.694.007-1.058L9.79 1.76a1.722 1.722 0 0 0-.007-.02h6.034a.54.54 0 0 1 .512.366l6.562 19.445a.54.54 0 0 1-.338.684"/>
      </svg>
    </g>
    <text x="34" y="15" class="item-text">Azure</text>
  </g>


  <g transform="translate(20, 147)">
    <g width="20" height="20" color="#fb923c" opacity="1.0">
      <svg width="20" height="20" viewBox="0 0 24 24">
        <title>Google Cloud</title><path fill="currentColor" d="M12.19 2.38a9.344 9.344 0 0 0-9.234 6.893c.053-.02-.055.013 0 0-3.875 2.551-3.922 8.11-.247 10.941l.006-.007-.007.03a6.717 6.717 0 0 0 4.077 1.356h5.173l.03.03h5.192c6.687.053 9.376-8.605 3.835-12.35a9.365 9.365 0 0 0-2.821-4.552l-.043.043.006-.05A9.344 9.344 0 0 0 12.19 2.38zm-.358 4.146c1.244-.04 2.518.368 3.486 1.15a5.186 5.186 0 0 1 1.862 4.078v.518c3.53-.07 3.53 5.262 0 5.193h-5.193l-.008.009v-.04H6.785a2.59 2.59 0 0 1-1.067-.23h.001a2.597 2.597 0 1 1 3.437-3.437l3.013-3.012A6.747 6.747 0 0 0 8.11 8.24c.018-.01.04-.026.054-.023a5.186 5.186 0 0 1 3.67-1.69z"/>
      </svg>
    </g>
    <text x="34" y="15" class="item-text">Google Cloud</text>
  </g>

</g>

<g transform="translate(295, 150)">
  <rect width="220" height="240" class="glass-card"/>
  <rect x="20" y="25" width="12" height="12" rx="3" fill="#38bdf8" opacity="0.3"/>
  <rect x="20" y="25" width="12" height="12" rx="3" fill="none" stroke="#38bdf8" stroke-width="2"/>
  <text x="42" y="36" class="subtitle" fill="#38bdf8">CONTAINERS</text>
  <line x1="20" y1="55" x2="200" y2="55" stroke="#ffffff" stroke-opacity="0.1"/>


  <g transform="translate(20, 71)">
    <g width="20" height="20" color="#38bdf8" opacity="1.0">
      <svg width="20" height="20" viewBox="0 0 24 24">
        <title>Docker</title><path fill="currentColor" d="M13.983 11.078h2.119a.186.186 0 00.186-.185V9.006a.186.186 0 00-.186-.186h-2.119a.185.185 0 00-.185.185v1.888c0 .102.083.185.185.185m-2.954-5.43h2.118a.186.186 0 00.186-.186V3.574a.186.186 0 00-.186-.185h-2.118a.185.185 0 00-.185.185v1.888c0 .102.082.185.185.185m0 2.716h2.118a.187.187 0 00.186-.186V6.29a.186.186 0 00-.186-.185h-2.118a.185.185 0 00-.185.185v1.887c0 .102.082.185.185.186m-2.93 0h2.12a.186.186 0 00.184-.186V6.29a.185.185 0 00-.185-.185H8.1a.185.185 0 00-.185.185v1.887c0 .102.083.185.185.186m-2.964 0h2.119a.186.186 0 00.185-.186V6.29a.185.185 0 00-.185-.185H5.136a.186.186 0 00-.186.185v1.887c0 .102.084.185.186.186m5.893 2.715h2.118a.186.186 0 00.186-.185V9.006a.186.186 0 00-.186-.186h-2.118a.185.185 0 00-.185.185v1.888c0 .102.082.185.185.185m-2.93 0h2.12a.185.185 0 00.184-.185V9.006a.185.185 0 00-.184-.186h-2.12a.185.185 0 00-.184.185v1.888c0 .102.083.185.185.185m-2.964 0h2.119a.185.185 0 00.185-.185V9.006a.185.185 0 00-.184-.186h-2.12a.186.186 0 00-.186.186v1.887c0 .102.084.185.186.185m-2.92 0h2.12a.185.185 0 00.184-.185V9.006a.185.185 0 00-.184-.186h-2.12a.185.185 0 00-.184.185v1.888c0 .102.082.185.185.185M23.763 9.89c-.065-.051-.672-.51-1.954-.51-.338.001-.676.03-1.01.087-.248-1.7-1.653-2.53-1.716-2.566l-.344-.199-.226.327c-.284.438-.49.922-.612 1.43-.23.97-.09 1.882.403 2.661-.595.332-1.55.413-1.744.42H.751a.751.751 0 00-.75.748 11.376 11.376 0 00.692 4.062c.545 1.428 1.355 2.48 2.41 3.124 1.18.723 3.1 1.137 5.275 1.137.983.003 1.963-.086 2.93-.266a12.248 12.248 0 003.823-1.389c.98-.567 1.86-1.288 2.61-2.136 1.252-1.418 1.998-2.997 2.553-4.4h.221c1.372 0 2.215-.549 2.68-1.009.309-.293.55-.65.707-1.046l.098-.288Z"/>
      </svg>
    </g>
    <text x="34" y="15" class="item-text">Docker</text>
  </g>


  <g transform="translate(20, 109)">
    <g width="20" height="20" color="#38bdf8" opacity="1.0">
      <svg width="20" height="20" viewBox="0 0 24 24">
        <title>Kubernetes</title><path fill="currentColor" d="M10.204 14.35l.007.01-.999 2.413a5.171 5.171 0 0 1-2.075-2.597l2.578-.437.004.005a.44.44 0 0 1 .484.606zm-.833-2.129a.44.44 0 0 0 .173-.756l.002-.011L7.585 9.7a5.143 5.143 0 0 0-.73 3.255l2.514-.725.002-.009zm1.145-1.98a.44.44 0 0 0 .699-.337l.01-.005.15-2.62a5.144 5.144 0 0 0-3.01 1.442l2.147 1.523.004-.002zm.76 2.75l.723.349.722-.347.18-.78-.5-.623h-.804l-.5.623.179.779zm1.5-3.095a.44.44 0 0 0 .7.336l.008.003 2.134-1.513a5.188 5.188 0 0 0-2.992-1.442l.148 2.615.002.001zm10.876 5.97l-5.773 7.181a1.6 1.6 0 0 1-1.248.594l-9.261.003a1.6 1.6 0 0 1-1.247-.596l-5.776-7.18a1.583 1.583 0 0 1-.307-1.34L2.1 5.573c.108-.47.425-.864.863-1.073L11.305.513a1.606 1.606 0 0 1 1.385 0l8.345 3.985c.438.209.755.604.863 1.073l2.062 8.955c.108.47-.005.963-.308 1.34zm-3.289-2.057c-.042-.01-.103-.026-.145-.034-.174-.033-.315-.025-.479-.038-.35-.037-.638-.067-.895-.148-.105-.04-.18-.165-.216-.216l-.201-.059a6.45 6.45 0 0 0-.105-2.332 6.465 6.465 0 0 0-.936-2.163c.052-.047.15-.133.177-.159.008-.09.001-.183.094-.282.197-.185.444-.338.743-.522.142-.084.273-.137.415-.242.032-.024.076-.062.11-.089.24-.191.295-.52.123-.736-.172-.216-.506-.236-.745-.045-.034.027-.08.062-.111.088-.134.116-.217.23-.33.35-.246.25-.45.458-.673.609-.097.056-.239.037-.303.033l-.19.135a6.545 6.545 0 0 0-4.146-2.003l-.012-.223c-.065-.062-.143-.115-.163-.25-.022-.268.015-.557.057-.905.023-.163.061-.298.068-.475.001-.04-.001-.099-.001-.142 0-.306-.224-.555-.5-.555-.275 0-.499.249-.499.555l.001.014c0 .041-.002.092 0 .128.006.177.044.312.067.475.042.348.078.637.056.906a.545.545 0 0 1-.162.258l-.012.211a6.424 6.424 0 0 0-4.166 2.003 8.373 8.373 0 0 1-.18-.128c-.09.012-.18.04-.297-.029-.223-.15-.427-.358-.673-.608-.113-.12-.195-.234-.329-.349-.03-.026-.077-.062-.111-.088a.594.594 0 0 0-.348-.132.481.481 0 0 0-.398.176c-.172.216-.117.546.123.737l.007.005.104.083c.142.105.272.159.414.242.299.185.546.338.743.522.076.082.09.226.1.288l.16.143a6.462 6.462 0 0 0-1.02 4.506l-.208.06c-.055.072-.133.184-.215.217-.257.081-.546.11-.895.147-.164.014-.305.006-.48.039-.037.007-.09.02-.133.03l-.004.002-.007.002c-.295.071-.484.342-.423.608.061.267.349.429.645.365l.007-.001.01-.003.129-.029c.17-.046.294-.113.448-.172.33-.118.604-.217.87-.256.112-.009.23.069.288.101l.217-.037a6.5 6.5 0 0 0 2.88 3.596l-.09.218c.033.084.069.199.044.282-.097.252-.263.517-.452.813-.091.136-.185.242-.268.399-.02.037-.045.095-.064.134-.128.275-.034.591.213.71.248.12.556-.007.69-.282v-.002c.02-.039.046-.09.062-.127.07-.162.094-.301.144-.458.132-.332.205-.68.387-.897.05-.06.13-.082.215-.105l.113-.205a6.453 6.453 0 0 0 4.609.012l.106.192c.086.028.18.042.256.155.136.232.229.507.342.84.05.156.074.295.145.457.016.037.043.09.062.129.133.276.442.402.69.282.247-.118.341-.435.213-.71-.02-.039-.045-.096-.065-.134-.083-.156-.177-.261-.268-.398-.19-.296-.346-.541-.443-.793-.04-.13.007-.21.038-.294-.018-.022-.059-.144-.083-.202a6.499 6.499 0 0 0 2.88-3.622c.064.01.176.03.213.038.075-.05.144-.114.28-.104.266.039.54.138.87.256.154.06.277.128.448.173.036.01.088.019.13.028l.009.003.007.001c.297.064.584-.098.645-.365.06-.266-.128-.537-.423-.608zM16.4 9.701l-1.95 1.746v.005a.44.44 0 0 0 .173.757l.003.01 2.526.728a5.199 5.199 0 0 0-.108-1.674A5.208 5.208 0 0 0 16.4 9.7zm-4.013 5.325a.437.437 0 0 0-.404-.232.44.44 0 0 0-.372.233h-.002l-1.268 2.292a5.164 5.164 0 0 0 3.326.003l-1.27-2.296h-.01zm1.888-1.293a.44.44 0 0 0-.27.036.44.44 0 0 0-.214.572l-.003.004 1.01 2.438a5.15 5.15 0 0 0 2.081-2.615l-2.6-.44-.004.005z"/>
      </svg>
    </g>
    <text x="34" y="15" class="item-text">Kubernetes</text>
  </g>


  <g transform="translate(20, 147)">
    <g width="20" height="20" color="#38bdf8" opacity="1.0">
      <svg width="20" height="20" viewBox="0 0 24 24">
        <title>Podman</title><path fill="currentColor" d="M17.2.275L6.75.308a.259.259 0 0 0-.203.098L.056 8.602a.259.259 0 0 0-.05.219l2.356 10.194a.26.26 0 0 0 .14.174l9.43 4.511a.258.258 0 0 0 .224-.002l9.401-4.566a.259.259 0 0 0 .141-.175L23.993 8.75a.258.258 0 0 0-.051-.22L17.403.374A.259.259 0 0 0 17.2.275zm-.123.517l6.385 7.966-2.242 9.964-9.177 4.457-9.205-4.402L.54 8.827 6.875.824zM11.46 2.857c-.933 0-1.84.1-2.426.332h-.002c-1.554.569-2.725 2.105-3.074 3.952v.004c-.309 1.463-.392 2.703-.556 3.824-.07.481-.159.94-.283 1.387-.628.497-1.079 1.263-1.244 2.138v.004c-.116.547-.181 1.04-.237 1.5h-.644v.518h8.891c-.061.464-.122.996-.181 1.42H7.596v.517h7.939c-.242-.078-.486-.218-.756-.502h-.697l-.85.488-.232-.396.162-.092h-1.069c.113-.776.17-1.601.373-2.564v-.004c.22-1.164.96-2.112 1.895-2.453l.004-.002h.002c.318-.127.928-.205 1.543-.205.613 0 1.244.075 1.622.207.935.341 1.676 1.29 1.895 2.453v.004c.204.963.26 1.788.373 2.564h-.742l.162.092-.233.396-.85-.488h-.75c-.219.25-.474.412-.747.502h4.392v-.518h-.842c-.103-.743-.181-1.67-.382-2.623v-.002a4.14 4.14 0 0 0-.264-.863h1.863v-.517h-2.13a3.488 3.488 0 0 0-.8-.906h1.8v-.518H17.95a8.862 8.862 0 0 1-.193-.775h1.484v-.518h-1.576c-.013-.081-.027-.161-.039-.244-.164-1.12-.246-2.36-.555-3.824v-.004c-.348-1.848-1.52-3.383-3.075-3.952l-.002-.002h-.002c-.65-.227-1.596-.33-2.531-.33zm0 .386c.904 0 1.833.11 2.404.309h.002c1.4.514 2.5 1.934 2.826 3.666v.003c.303 1.436.385 2.66.552 3.805.076.515.173 1.013.315 1.505-.449-.135-1.05-.197-1.648-.197-.12 0-.236.003-.352.008l-1.863-1.865a2.17 2.17 0 0 0 .11-.246l2.13 1.23.13-.224-2.185-1.262c.016-.069.027-.14.036-.21l2.302.616.068-.248-2.354-.63c-.02-1.153-1.008-2.078-2.208-2.078-1.205 0-2.196.931-2.206 2.091l-2.303.617.066.25 2.252-.605c.01.076.024.151.041.224L7.436 11.24l.129.222 2.087-1.207c.034.089.074.176.12.258l-1.266 1.266a6.959 6.959 0 0 0-1.045-.075c-.603 0-1.186.064-1.578.22a2.668 2.668 0 0 0-.285.124c.076-.335.137-.675.187-1.021.168-1.144.248-2.37.551-3.805l.002-.001v-.002c.326-1.733 1.426-3.153 2.828-3.666h.002l.004-.002c.488-.194 1.381-.307 2.287-.307zM8.473 5.194a1.295 1.295 0 0 0-.965.502l-.117.153.306.236.12-.152a.923.923 0 0 1 .673-.352.92.92 0 0 1 .67.262l.139.134.271-.275-.136-.137a1.293 1.293 0 0 0-.961-.37zm6.39 0a1.289 1.289 0 0 0-.96.371l-.138.137.274.275.136-.134a.923.923 0 0 1 .672-.262.923.923 0 0 1 .674.352l.119.152.307-.236-.12-.153c-.23-.3-.587-.486-.964-.502zM8.53 6.708c-.642 0-1.164.538-1.164 1.19 0 .65.522 1.187 1.164 1.187.643 0 1.164-.536 1.164-1.188 0-.651-.521-1.19-1.164-1.19zm6.273 0c-.643 0-1.162.538-1.162 1.19 0 .65.52 1.187 1.162 1.187.643 0 1.164-.536 1.164-1.188 0-.651-.521-1.19-1.164-1.19zm-6.273.387c.428 0 .776.355.776.802 0 .447-.348.8-.776.8a.785.785 0 0 1-.775-.8c0-.035.002-.07.006-.103.07.191.248.318.445.318a.487.487 0 0 0 .477-.496.49.49 0 0 0-.383-.486.759.759 0 0 1 .23-.035zm6.273 0c.428 0 .777.355.777.802 0 .447-.349.8-.777.8a.785.785 0 0 1-.77-.9c.072.19.248.315.444.315a.486.486 0 0 0 .479-.496.491.491 0 0 0-.383-.484.755.755 0 0 1 .23-.037zm-3.08.716c1.012 0 1.819.775 1.819 1.723 0 .947-.807 1.722-1.819 1.722s-1.82-.775-1.82-1.722c0-.948.808-1.723 1.82-1.723zm-.002.528c-.142 0-.258.043-.355.076a.804.804 0 0 1-.232.054c-.107 0-.2.047-.268.127a.568.568 0 0 0-.104.207c-.04.134-.062.268-.08.315a.276.276 0 0 0 .032.25c.033.056.071.1.117.146.09.092.206.183.322.268.12.088.237.166.326.224l-.008.09c-.043.036-.14.102-.324.178a.533.533 0 0 1-.299.025.43.43 0 0 1-.236-.172c.015-.138.044-.293.068-.449l-.376-.095c-.05.238-.067.43-.094.64l.037.059c.143.224.318.344.506.392a.908.908 0 0 0 .52-.033 1.57 1.57 0 0 0 .444-.242c.088.067.244.174.446.242a.908.908 0 0 0 .52.033.868.868 0 0 0 .507-.392l.037-.059a6.292 6.292 0 0 0-.096-.637l-.377.092c.032.148.051.32.07.451a.434.434 0 0 1-.237.17.533.533 0 0 1-.3-.025c-.178-.068-.272-.14-.325-.178l-.006-.084c.09-.058.209-.137.336-.23.115-.085.231-.176.322-.268a.72.72 0 0 0 .117-.146.273.273 0 0 0 .031-.25c-.018-.047-.039-.181-.08-.315a.564.564 0 0 0-.103-.207.343.343 0 0 0-.268-.127.815.815 0 0 1-.234-.054c-.097-.033-.212-.076-.354-.076zm.002.386c.057 0 .134.024.23.057.09.03.208.07.337.076.04.102.06.237.09.338a.361.361 0 0 1-.041.045 2.66 2.66 0 0 1-.276.228c-.165.122-.271.188-.342.233a5.287 5.287 0 0 1-.34-.233 2.557 2.557 0 0 1-.275-.228.34.34 0 0 1-.04-.047c.035-.119.046-.234.089-.34.08.012.246-.042.336-.072a.837.837 0 0 1 .232-.057zm-3.234.61a.635.635 0 0 0-.611.517l1.084-.289a.614.614 0 0 0-.473-.228zm6.336 0a.61.61 0 0 0-.436.187c.352.096.69.184 1.033.275a.632.632 0 0 0-.597-.462zm-.623.607c-.007.035-.002.07-.002.103l.921.532a.648.648 0 0 0 .276-.313l-1.195-.322zm-5.086.05l-1.18.315c.078.15.207.264.362.316l.797-.46c.018-.059.015-.12.021-.17zm4.441.714l1.656 1.658a4.19 4.19 0 0 0-.826.146l-.95-1.647a2.51 2.51 0 0 0 .12-.157zm-3.646.03c.04.055.083.118.129.169l-.658 1.134a2.656 2.656 0 0 0-.276-.119l-.002-.002a3.3 3.3 0 0 0-.292-.082zm3.338.317l.892 1.547c-.623.251-1.149.725-1.523 1.33h-1.652c-.262-.75-.741-1.38-1.358-1.764l.623-1.082c.394.347.919.559 1.492.559a2.25 2.25 0 0 0 1.526-.59zM7.46 12.09c.574 0 1.167.073 1.518.195.867.319 1.555 1.203 1.76 2.285l.001.002v.002c.109.513.173.98.227 1.424H9.86a.386.386 0 0 0-.494 0H9.11a1.351 1.351 0 0 0-.078-.418.799.799 0 0 0 .569.238c.45 0 .814-.375.814-.828a.824.824 0 0 0-.814-.828.822.822 0 0 0-.791 1.016 1.495 1.495 0 0 0-1.18-.559c-.798 0-1.46.611-1.48 1.38h-.342a.386.386 0 0 0-.494 0H4.028c.054-.445.116-.912.224-1.425l.002-.002v-.002c.205-1.084.894-1.97 1.764-2.287h.002l.004-.002c.295-.117.863-.191 1.437-.19zm-1.91 1.105a.898.898 0 0 0-.67.348l-.119.154.307.237.119-.155a.525.525 0 0 1 .379-.197.52.52 0 0 1 .377.147l.138.136.272-.275-.137-.137a.895.895 0 0 0-.666-.258zm4.094 0a.9.9 0 0 0-.668.258l-.137.137.273.275.137-.136a.522.522 0 0 1 .377-.147.525.525 0 0 1 .379.197l.119.155.307-.237-.12-.154a.894.894 0 0 0-.667-.348zm4.222.735a.947.947 0 0 0-.707.365l-.117.154.306.237.12-.155a.568.568 0 0 1 .413-.213.571.571 0 0 1 .414.159l.14.136.27-.275-.138-.137a.942.942 0 0 0-.701-.271zm4.374 0a.942.942 0 0 0-.7.271l-.14.137.272.275.139-.136a.571.571 0 0 1 .414-.159.568.568 0 0 1 .414.213l.119.155.306-.237-.117-.154a.947.947 0 0 0-.707-.365zm-12.65.232a.824.824 0 0 0-.815.828c0 .453.365.828.814.828.45 0 .815-.375.815-.828a.824.824 0 0 0-.815-.828zm5.518.285h1.242a4.137 4.137 0 0 0-.263.864v.002c-.05.237-.092.464-.127.685h-.602a16.77 16.77 0 0 0-.236-1.5l-.002-.002c-.003-.016-.009-.032-.012-.049zm-5.519.102a.43.43 0 0 1 .426.441.43.43 0 0 1-.426.442c-.22 0-.4-.171-.422-.397a.298.298 0 0 0 .215.092.31.31 0 0 0 .305-.316.317.317 0 0 0-.129-.258c.01-.001.02-.004.031-.004zm4.014 0c.235 0 .427.193.427.441a.433.433 0 0 1-.427.442.427.427 0 0 1-.422-.405.3.3 0 0 0 .256.145.31.31 0 0 0 .304-.317.314.314 0 0 0-.207-.298c.023-.004.045-.008.069-.008zm4.304.414a.865.865 0 0 0-.856.87c0 .478.382.874.856.874a.868.868 0 0 0 .857-.873.867.867 0 0 0-.857-.871zm4.292 0a.867.867 0 0 0-.814 1.14 1.597 1.597 0 0 0-1.295-.652c-.846 0-1.546.65-1.568 1.463l-1.525.408.066.248 1.477-.394c.004.028.009.06.015.087l-1.418.817.131.222 1.367-.789c.235.552.801.94 1.455.94.66 0 1.233-.397 1.463-.957l1.398.806.13-.222-1.45-.836c.005-.025.008-.053.012-.078l1.511.404.067-.248-1.563-.418a1.438 1.438 0 0 0-.107-.5c.157.186.39.303.648.303a.867.867 0 0 0 .856-.873.865.865 0 0 0-.856-.871zm-10.567.043c.598 0 1.071.444 1.092.992h-.41c.007-.01.016-.02.023-.033a.24.24 0 0 0 .025-.22c-.005-.016-.021-.102-.05-.196a.416.416 0 0 0-.078-.156.282.282 0 0 0-.225-.108.499.499 0 0 1-.129-.031c-.062-.021-.142-.05-.248-.05-.106 0-.188.029-.25.05a.49.49 0 0 1-.127.031.29.29 0 0 0-.225.108.424.424 0 0 0-.08.156c-.029.094-.043.18-.048.195a.242.242 0 0 0 .023.22c.008.014.017.023.025.034h-.41c.02-.548.494-.992 1.092-.992zm6.275.344c.259 0 .47.211.47.484a.477.477 0 0 1-.47.486.472.472 0 0 1-.467-.453.322.322 0 0 0 .246.115c.18 0 .326-.15.326-.338a.34.34 0 0 0-.156-.289c.017-.002.033-.005.05-.005zm4.292 0c.26 0 .469.211.469.484 0 .272-.21.486-.469.486a.477.477 0 0 1-.47-.486c0-.016.002-.031.004-.047a.33.33 0 0 0 .312.24c.18 0 .326-.15.326-.338a.338.338 0 0 0-.256-.332.475.475 0 0 1 .084-.007zm-10.567.24c.021 0 .063.01.125.031.086.03.117.039.186.049.012.041.022.088.033.129a1.475 1.475 0 0 1-.168.138c-.038.028-.064.045-.088.061h-.176c-.024-.016-.052-.033-.09-.06a1.602 1.602 0 0 1-.168-.14l.034-.128c.107-.014.146-.04.185-.049a.504.504 0 0 1 .127-.031zm8.458.25c.661 0 1.184.502 1.184 1.113 0 .156-.035.304-.096.44l-.002-.024-.022-.156a2.443 2.443 0 0 0-.04-.24l-.377.093.044.274a.24.24 0 0 1-.115.074.299.299 0 0 1-.168-.014c-.087-.03-.132-.063-.18-.094.057-.037.13-.084.198-.134.08-.06.16-.123.226-.19a.542.542 0 0 0 .092-.111.245.245 0 0 0 .026-.225c-.008-.019-.022-.112-.053-.21a.444.444 0 0 0-.084-.163.286.286 0 0 0-.23-.107.566.566 0 0 1-.14-.037c-.065-.022-.152-.055-.263-.055-.11 0-.195.032-.262.055a.575.575 0 0 1-.14.037.294.294 0 0 0-.23.107.436.436 0 0 0-.083.162c-.03.1-.045.192-.052.211a.246.246 0 0 0 .025.225.534.534 0 0 0 .09.111c.066.067.146.13.226.19.068.05.138.095.194.132a.57.57 0 0 1-.18.096.305.305 0 0 1-.17.014.237.237 0 0 1-.111-.076c.008-.09.026-.177.04-.272l-.376-.094c-.032.146-.045.286-.063.409a1.052 1.052 0 0 1-.09-.428c0-.611.521-1.113 1.182-1.113zm0 .623c.026 0 .074.01.14.033.066.025.169.052.206.055l.035.156c-.04.04-.112.1-.184.152-.095.07-.14.095-.197.131-.056-.036-.1-.061-.195-.13a1.236 1.236 0 0 1-.184-.157l.035-.152a1.04 1.04 0 0 0 .206-.055.523.523 0 0 1 .138-.033zm-2.22.353a.43.43 0 0 0-.385.272l.656-.176a.416.416 0 0 0-.271-.096zm4.333 0a.414.414 0 0 0-.22.07l.603.16a.426.426 0 0 0-.383-.23zm-4.054.567l-.607.162a.436.436 0 0 0 .125.113zm3.925.002l.407.234a.443.443 0 0 0 .087-.102zm-1.986.234c.067.047.165.108.285.148a.68.68 0 0 0 .389.024.57.57 0 0 0 .232-.121 1.201 1.201 0 0 1-.904.394c-.356 0-.67-.145-.885-.375a.58.58 0 0 0 .207.102c.144.036.28.014.391-.024.12-.04.218-.1.285-.148zm-9.524 1.61v.517h6.214v-.518zm3.619 1.292v.517H15.3v-.517z"/>
      </svg>
    </g>
    <text x="34" y="15" class="item-text">Podman</text>
  </g>


  <g transform="translate(20, 185)">
    <g width="20" height="20" color="#38bdf8" opacity="1.0">
      <svg width="20" height="20" viewBox="0 0 24 24">
        <title>Helm</title><path fill="currentColor" d="M12.337 0c-.475 0-.861 1.016-.861 2.269 0 .527.069 1.011.183 1.396a8.514 8.514 0 0 0-3.961 1.22 5.229 5.229 0 0 0-.595-1.093c-.606-.866-1.34-1.436-1.79-1.43a.381.381 0 0 0-.217.066c-.39.273-.123 1.326.596 2.353.267.381.559.705.84.948a8.683 8.683 0 0 0-1.528 1.716h1.734a7.179 7.179 0 0 1 5.381-2.421 7.18 7.18 0 0 1 5.382 2.42h1.733a8.687 8.687 0 0 0-1.32-1.53c.35-.249.735-.643 1.078-1.133.719-1.027.986-2.08.596-2.353a.382.382 0 0 0-.217-.065c-.45-.007-1.184.563-1.79 1.43a4.897 4.897 0 0 0-.676 1.325 8.52 8.52 0 0 0-3.899-1.42c.12-.39.193-.887.193-1.429 0-1.253-.386-2.269-.862-2.269zM1.624 9.443v5.162h1.358v-1.968h1.64v1.968h1.357V9.443H4.62v1.838H2.98V9.443zm5.912 0v5.162h3.21v-1.108H8.893v-.95h1.64v-1.142h-1.64v-.84h1.853V9.443zm4.698 0v5.162h3.218v-1.362h-1.86v-3.8zm4.706 0v5.162h1.364v-2.643l1.357 1.225 1.35-1.232v2.65h1.365V9.443h-.614l-2.1 1.914-2.109-1.914zm-11.82 7.28a8.688 8.688 0 0 0 1.412 1.548 5.206 5.206 0 0 0-.841.948c-.719 1.027-.985 2.08-.596 2.353.39.273 1.289-.338 2.007-1.364a5.23 5.23 0 0 0 .595-1.092 8.514 8.514 0 0 0 3.961 1.219 5.01 5.01 0 0 0-.183 1.396c0 1.253.386 2.269.861 2.269.476 0 .862-1.016.862-2.269 0-.542-.072-1.04-.193-1.43a8.52 8.52 0 0 0 3.9-1.42c.121.4.352.865.675 1.327.719 1.026 1.617 1.637 2.007 1.364.39-.273.123-1.326-.596-2.353-.343-.49-.727-.885-1.077-1.135a8.69 8.69 0 0 0 1.202-1.36h-1.771a7.174 7.174 0 0 1-5.227 2.252 7.174 7.174 0 0 1-5.226-2.252z"/>
      </svg>
    </g>
    <text x="34" y="15" class="item-text">Helm</text>
  </g>

</g>

<g transform="translate(540, 150)">
  <rect width="220" height="240" class="glass-card"/>
  <rect x="20" y="25" width="12" height="12" rx="3" fill="#a78bfa" opacity="0.3"/>
  <rect x="20" y="25" width="12" height="12" rx="3" fill="none" stroke="#a78bfa" stroke-width="2"/>
  <text x="42" y="36" class="subtitle" fill="#a78bfa">INFRASTRUCTURE</text>
  <line x1="20" y1="55" x2="200" y2="55" stroke="#ffffff" stroke-opacity="0.1"/>


  <g transform="translate(20, 71)">
    <g width="20" height="20" color="#a78bfa" opacity="1.0">
      <svg width="20" height="20" viewBox="0 0 24 24">
        <title>Terraform</title><path fill="currentColor" d="M1.44 0v7.575l6.561 3.79V3.787zm21.12 4.227l-6.561 3.791v7.574l6.56-3.787zM8.72 4.23v7.575l6.561 3.787V8.018zm0 8.405v7.575L15.28 24v-7.578z"/>
      </svg>
    </g>
    <text x="34" y="15" class="item-text">Terraform</text>
  </g>


  <g transform="translate(20, 109)">
    <g width="20" height="20" color="#a78bfa" opacity="1.0">
      <svg width="20" height="20" viewBox="0 0 24 24">
        <title>Ansible</title><path fill="currentColor" d="M10.617 11.473l4.686 3.695-3.102-7.662zM12 0C5.371 0 0 5.371 0 12s5.371 12 12 12 12-5.371 12-12S18.629 0 12 0zm5.797 17.305c-.011.471-.403.842-.875.83-.236 0-.416-.09-.664-.293l-6.19-5-2.079 5.203H6.191L11.438 5.44c.124-.314.427-.52.764-.506.326-.014.63.189.742.506l4.774 11.494c.045.111.08.234.08.348-.001.009-.001.009-.001.023z"/>
      </svg>
    </g>
    <text x="34" y="15" class="item-text">Ansible</text>
  </g>


  <g transform="translate(20, 147)">
    <g width="20" height="20" color="#a78bfa" opacity="1.0">
      <svg width="20" height="20" viewBox="0 0 24 24">
        <title>Amazon AWS</title><path fill="currentColor" d="M6.763 10.036c0 .296.032.535.088.71.064.176.144.368.256.576.04.063.056.127.056.183 0 .08-.048.16-.152.24l-.503.335a.383.383 0 0 1-.208.072c-.08 0-.16-.04-.239-.112a2.47 2.47 0 0 1-.287-.375 6.18 6.18 0 0 1-.248-.471c-.622.734-1.405 1.101-2.347 1.101-.67 0-1.205-.191-1.596-.574-.391-.384-.59-.894-.59-1.533 0-.678.239-1.23.726-1.644.487-.415 1.133-.623 1.955-.623.272 0 .551.024.846.064.296.04.6.104.918.176v-.583c0-.607-.127-1.03-.375-1.277-.255-.248-.686-.367-1.3-.367-.28 0-.568.031-.863.103-.295.072-.583.16-.862.272a2.287 2.287 0 0 1-.28.104.488.488 0 0 1-.127.023c-.112 0-.168-.08-.168-.247v-.391c0-.128.016-.224.056-.28a.597.597 0 0 1 .224-.167c.279-.144.614-.264 1.005-.36a4.84 4.84 0 0 1 1.246-.151c.95 0 1.644.216 2.091.647.439.43.662 1.085.662 1.963v2.586zm-3.24 1.214c.263 0 .534-.048.822-.144.287-.096.543-.271.758-.51.128-.152.224-.32.272-.512.047-.191.08-.423.08-.694v-.335a6.66 6.66 0 0 0-.735-.136 6.02 6.02 0 0 0-.75-.048c-.535 0-.926.104-1.19.32-.263.215-.39.518-.39.917 0 .375.095.655.295.846.191.2.47.296.838.296zm6.41.862c-.144 0-.24-.024-.304-.08-.064-.048-.12-.16-.168-.311L7.586 5.55a1.398 1.398 0 0 1-.072-.32c0-.128.064-.2.191-.2h.783c.151 0 .255.025.31.08.065.048.113.16.16.312l1.342 5.284 1.245-5.284c.04-.16.088-.264.151-.312a.549.549 0 0 1 .32-.08h.638c.152 0 .256.025.32.08.063.048.12.16.151.312l1.261 5.348 1.381-5.348c.048-.16.104-.264.16-.312a.52.52 0 0 1 .311-.08h.743c.127 0 .2.065.2.2 0 .04-.009.08-.017.128a1.137 1.137 0 0 1-.056.2l-1.923 6.17c-.048.16-.104.263-.168.311a.51.51 0 0 1-.303.08h-.687c-.151 0-.255-.024-.32-.08-.063-.056-.119-.16-.15-.32l-1.238-5.148-1.23 5.14c-.04.16-.087.264-.15.32-.065.056-.177.08-.32.08zm10.256.215c-.415 0-.83-.048-1.229-.143-.399-.096-.71-.2-.918-.32-.128-.071-.215-.151-.247-.223a.563.563 0 0 1-.048-.224v-.407c0-.167.064-.247.183-.247.048 0 .096.008.144.024.048.016.12.048.2.08.271.12.566.215.878.279.319.064.63.096.95.096.502 0 .894-.088 1.165-.264a.86.86 0 0 0 .415-.758.777.777 0 0 0-.215-.559c-.144-.151-.416-.287-.807-.415l-1.157-.36c-.583-.183-1.014-.454-1.277-.813a1.902 1.902 0 0 1-.4-1.158c0-.335.073-.63.216-.886.144-.255.335-.479.575-.654.24-.184.51-.32.83-.415.32-.096.655-.136 1.006-.136.175 0 .359.008.535.032.183.024.35.056.518.088.16.04.312.08.455.127.144.048.256.096.336.144a.69.69 0 0 1 .24.2.43.43 0 0 1 .071.263v.375c0 .168-.064.256-.184.256a.83.83 0 0 1-.303-.096 3.652 3.652 0 0 0-1.532-.311c-.455 0-.815.071-1.062.223-.248.152-.375.383-.375.71 0 .224.08.416.24.567.159.152.454.304.877.44l1.134.358c.574.184.99.44 1.237.767.247.327.367.702.367 1.117 0 .343-.072.655-.207.926-.144.272-.336.511-.583.703-.248.2-.543.343-.886.447-.36.111-.734.167-1.142.167zM21.698 16.207c-2.626 1.94-6.442 2.969-9.722 2.969-4.598 0-8.74-1.7-11.87-4.526-.247-.223-.024-.527.272-.351 3.384 1.963 7.559 3.153 11.877 3.153 2.914 0 6.114-.607 9.06-1.852.439-.2.814.287.383.607zM22.792 14.961c-.336-.43-2.22-.207-3.074-.103-.255.032-.295-.192-.063-.36 1.5-1.053 3.967-.75 4.254-.399.287.36-.08 2.826-1.485 4.007-.215.184-.423.088-.327-.151.32-.79 1.03-2.57.695-2.994z"/>
      </svg>
    </g>
    <text x="34" y="15" class="item-text">CloudFormation</text>
  </g>

</g>

<g transform="translate(785, 150)">
  <rect width="220" height="240" class="glass-card"/>
  <rect x="20" y="25" width="12" height="12" rx="3" fill="#f472b6" opacity="0.3"/>
  <rect x="20" y="25" width="12" height="12" rx="3" fill="none" stroke="#f472b6" stroke-width="2"/>
  <text x="42" y="36" class="subtitle" fill="#f472b6">CI / CD</text>
  <line x1="20" y1="55" x2="200" y2="55" stroke="#ffffff" stroke-opacity="0.1"/>


  <g transform="translate(20, 71)">
    <g width="20" height="20" color="#f472b6" opacity="1.0">
      <svg width="20" height="20" viewBox="0 0 24 24">
        <title>GitHub Actions</title><path fill="currentColor" d="M10.984 13.836a.5.5 0 0 1-.353-.146l-.745-.743a.5.5 0 1 1 .706-.708l.392.391 1.181-1.18a.5.5 0 0 1 .708.707l-1.535 1.533a.504.504 0 0 1-.354.146zm9.353-.147l1.534-1.532a.5.5 0 0 0-.707-.707l-1.181 1.18-.392-.391a.5.5 0 1 0-.706.708l.746.743a.497.497 0 0 0 .706-.001zM4.527 7.452l2.557-1.585A1 1 0 0 0 7.09 4.17L4.533 2.56A1 1 0 0 0 3 3.406v3.196a1.001 1.001 0 0 0 1.527.85zm2.03-2.436L4 6.602V3.406l2.557 1.61zM24 12.5c0 1.93-1.57 3.5-3.5 3.5a3.503 3.503 0 0 1-3.46-3h-2.08a3.503 3.503 0 0 1-3.46 3 3.502 3.502 0 0 1-3.46-3h-.558c-.972 0-1.85-.399-2.482-1.042V17c0 1.654 1.346 3 3 3h.04c.244-1.693 1.7-3 3.46-3 1.93 0 3.5 1.57 3.5 3.5S13.43 24 11.5 24a3.502 3.502 0 0 1-3.46-3H8c-2.206 0-4-1.794-4-4V9.899A5.008 5.008 0 0 1 0 5c0-2.757 2.243-5 5-5s5 2.243 5 5a5.005 5.005 0 0 1-4.952 4.998A2.482 2.482 0 0 0 7.482 12h.558c.244-1.693 1.7-3 3.46-3a3.502 3.502 0 0 1 3.46 3h2.08a3.503 3.503 0 0 1 3.46-3c1.93 0 3.5 1.57 3.5 3.5zm-15 8c0 1.378 1.122 2.5 2.5 2.5s2.5-1.122 2.5-2.5-1.122-2.5-2.5-2.5S9 19.122 9 20.5zM5 9c2.206 0 4-1.794 4-4S7.206 1 5 1 1 2.794 1 5s1.794 4 4 4zm9 3.5c0-1.378-1.122-2.5-2.5-2.5S9 11.122 9 12.5s1.122 2.5 2.5 2.5 2.5-1.122 2.5-2.5zm9 0c0-1.378-1.122-2.5-2.5-2.5S18 11.122 18 12.5s1.122 2.5 2.5 2.5 2.5-1.122 2.5-2.5zm-13 8a.5.5 0 1 0 1 0 .5.5 0 0 0-1 0zm2 0a.5.5 0 1 0 1 0 .5.5 0 0 0-1 0zm12 0c0 1.93-1.57 3.5-3.5 3.5a3.503 3.503 0 0 1-3.46-3.002c-.007.001-.013.005-.021.005l-.506.017h-.017a.5.5 0 0 1-.016-.999l.506-.017c.018-.002.035.006.052.007A3.503 3.503 0 0 1 20.5 17c1.93 0 3.5 1.57 3.5 3.5zm-1 0c0-1.378-1.122-2.5-2.5-2.5S18 19.122 18 20.5s1.122 2.5 2.5 2.5 2.5-1.122 2.5-2.5z"/>
      </svg>
    </g>
    <text x="34" y="15" class="item-text">GitHub Actions</text>
  </g>


  <g transform="translate(20, 109)">
    <g width="20" height="20" color="#f472b6" opacity="1.0">
      <svg width="20" height="20" viewBox="0 0 24 24">
        <title>Jenkins</title><path fill="currentColor" d="M2.872 24h-.975a3.866 3.866 0 01-.07-.197c-.215-.666-.594-1.49-.692-2.154-.146-.984.78-1.039 1.374-1.465.915-.66 1.635-1.025 2.627-1.62.295-.179 1.182-.624 1.281-.829.201-.408-.345-.982-.49-1.3-.225-.507-.345-.937-.376-1.435-.824-.13-1.455-.627-1.844-1.185-.63-.925-1.066-2.635-.525-3.936.045-.103.254-.305.285-.463.06-.308-.105-.72-.12-1.048-.06-1.692.284-3.15 1.425-3.66.463-1.84 2.113-2.453 3.673-3.367.58-.342 1.224-.562 1.89-.807 2.372-.877 6.027-.712 7.994.783.836.633 2.176 1.97 2.656 2.939 1.262 2.555 1.17 6.825.287 9.934-.12.421-.29 1.032-.533 1.533-.168.35-.689 1.05-.625 1.36.064.314 1.19 1.17 1.432 1.395.434.422 1.26.975 1.324 1.5.07.557-.248 1.336-.41 1.875-.217.721-.436 1.441-.654 2.131H2.87zm11.104-3.54c-.545-.3-1.361-.622-2.065-.757-.87-.164-.78 1.188-.75 1.994.03.643.36 1.316.51 1.744.076.197.09.41.256.449.3.068 1.29-.326 1.575-.479.6-.328 1.064-.844 1.574-1.189.016-.17.016-.34.03-.508a2.648 2.648 0 00-1.095-.277c.314-.15.75-.15 1.035-.332l.016-.193c-.496-.03-.69-.254-1.021-.436zm7.454 2.935a17.78 17.78 0 00.465-1.752c.06-.287.215-.918.178-1.176-.059-.459-.684-.799-1.004-1.086-.584-.525-.95-.975-1.56-1.469-.249.375-.78.615-.983.914 1.447-.689 1.71 2.625 1.141 3.69.09.329.391.45.514.735l-.086.166h1.29c.013 0 .03 0 .044.014zm-6.634-.012c-.05-.074-.1-.135-.15-.209l-.301.195h.45zm2.77 0c.008-.209.018-.404.03-.598-.53.029-.825-.48-1.196-.527-.324-.045-.6.361-1.02.195-.095.105-.183.227-.284.316.154.18.295.375.424.584h.815c.014-.164.135-.285.3-.285.165 0 .284.121.284.27h.66zm2.116 0c-.314-.479-.947-.898-1.68-.555l-.03.541h1.71zm-8.51 0l-.104-.344c-.225-.72-.36-1.26-.405-1.68-.914-.436-1.875-.87-2.654-1.426-.15-.105-1.109-1.35-1.23-1.305-1.739.676-3.359 1.86-4.814 2.984.256.557.48 1.141.69 1.74h8.505zm8.265-2.113c-.029-.512-.164-1.56-.48-1.74-.66-.39-1.846.78-2.34.943.045.15.135.271.15.48.285-.074.645-.029.898.092-.299.03-.629.03-.824.164-.074.195.016.48-.029.764.69.197 1.5.303 2.385.332.164-.227.225-.645.211-1.082zm-4.08-.36c-.044.375.046.51.12.943 1.26.391 1.034-1.74-.135-.959zM8.76 19.5c-.45.457 1.27 1.082 1.814 1.115 0-.29.165-.564.135-.77-.65-.118-1.502-.042-1.945-.347zm5.565.215c0 .043-.061.03-.068.064.58.451 1.014.545 1.802.51.354-.262.67-.563 1.043-.807-.855.074-1.931.607-2.774.23zm3.42-17.726c-1.606-.906-4.35-1.591-6.076-.731-1.38.692-3.27 1.84-3.899 3.292.6 1.402-.166 2.686-.226 4.109-.018.757.36 1.42.391 2.242-.2.338-.825.38-1.26.356-.146-.729-.4-1.549-1.155-1.63-1.064-.116-1.845.764-1.89 1.683-.06 1.08.833 2.864 2.085 2.745.488-.046.608-.54 1.139-.54.285.57-.445.75-.523 1.154-.016.105.06.511.104.705.233.944.744 2.16 1.245 2.88.635.9 1.884 1.051 3.229 1.141.24-.525 1.125-.48 1.706-.346-.691-.27-1.336-.945-1.875-1.529-.615-.676-1.23-1.41-1.261-2.28 1.155 1.604 2.1 3 4.2 3.704 1.59.525 3.45-.254 4.664-1.109.51-.359.811-.93 1.17-1.439 1.35-1.936 1.98-4.71 1.846-7.394-.06-1.111-.06-2.221-.436-2.955-.389-.781-1.695-1.471-2.475-.781-.15-.764.63-1.23 1.545-.96-.66-.854-1.336-1.858-2.266-2.384zM13.58 14.896c.615 1.544 2.724 1.363 4.505 1.323-.084.194-.256.435-.465.515-.57.232-2.145.408-2.937-.012-.506-.27-.824-.873-1.102-1.227-.137-.172-.795-.608-.012-.609zm.164-.87c.893.464 2.52.517 3.731.48.066.267.066.593.068.913-1.55.08-3.386-.304-3.794-1.395h-.005zm6.675-.586c-.473.9-1.145 1.897-2.539 1.928-.023-.284-.045-.735 0-.904 1.064-.103 1.727-.646 2.543-1.017zm-.649-.667c-1.02.66-2.154 1.375-3.824 1.21-.351-.31-.485-1-.14-1.458.181.313.06.885.57.97.944.165 2.038-.579 2.73-.84.42-.713-.046-.976-.42-1.433-.782-.93-1.83-2.1-1.802-3.51.314-.224.346.346.391.45.404.96 1.424 2.175 2.174 3 .18.21.48.39.51.524.092.39-.254.854-.209 1.11zm-13.439-.675c-.314-.184-.393-.99-.768-1.01-.535-.03-.438 1.05-.436 1.68-.37-.33-.435-1.365-.164-1.89-.308-.15-.445.164-.618.284.22-1.59 2.34-.734 1.99.96zM4.713 5.995c-.685.756-.54 2.174-.459 3.188 1.244-.785 2.898.06 2.883 1.394.595-.016.223-.744.115-1.215-.353-1.528.592-3.187.041-4.59-1.064.084-1.939.52-2.578 1.215zm9.12 1.113c.307.562.404 1.148.84 1.57.195.19.574.424.387.95-.045.121-.365.391-.551.45-.674.195-2.254.03-1.721-.81.563.015 1.314.36 1.732-.045-.314-.524-.885-1.53-.674-2.13zm6.198-.013h.068c.33.668.6 1.375 1.004 1.965-.27.628-2.053 1.19-2.023.057.39-.17 1.05-.035 1.395-.25-.193-.556-.48-1.006-.434-1.771zm-6.927-1.617c-1.422-.33-2.131.592-2.56 1.553-.384-.094-.231-.615-.135-.883.255-.701 1.28-1.633 2.119-1.506.359.057.848.386.576.834zM9.642 1.593c-1.56.44-3.56 1.574-4.2 2.974.495-.07.84-.321 1.33-.351.186-.016.428.074.641.015.424-.104.78-1.065 1.102-1.41.31-.345.685-.496.94-.81.167-.09.409-.074.42-.33-.073-.075-.15-.135-.232-.105v.017z"/>
      </svg>
    </g>
    <text x="34" y="15" class="item-text">Jenkins</text>
  </g>


  <g transform="translate(20, 147)">
    <g width="20" height="20" color="#f472b6" opacity="1.0">
      <svg width="20" height="20" viewBox="0 0 24 24">
        <title>GitLab</title><path fill="currentColor" d="m23.6004 9.5927-.0337-.0862L20.3.9814a.851.851 0 0 0-.3362-.405.8748.8748 0 0 0-.9997.0539.8748.8748 0 0 0-.29.4399l-2.2055 6.748H7.5375l-2.2057-6.748a.8573.8573 0 0 0-.29-.4412.8748.8748 0 0 0-.9997-.0537.8585.8585 0 0 0-.3362.4049L.4332 9.5015l-.0325.0862a6.0657 6.0657 0 0 0 2.0119 7.0105l.0113.0087.03.0213 4.976 3.7264 2.462 1.8633 1.4995 1.1321a1.0085 1.0085 0 0 0 1.2197 0l1.4995-1.1321 2.4619-1.8633 5.006-3.7489.0125-.01a6.0682 6.0682 0 0 0 2.0094-7.003z"/>
      </svg>
    </g>
    <text x="34" y="15" class="item-text">GitLab CI</text>
  </g>


  <g transform="translate(20, 185)">
    <g width="20" height="20" color="#f472b6" opacity="1.0">
      <svg width="20" height="20" viewBox="0 0 24 24">
        <title>Argo</title><path fill="currentColor" d="M12.581 0c.436.037.871.1 1.299.186 1.679.383 3.121 1.213 4.382 2.365 1.161 1.06 1.917 2.372 2.335 3.881.089.321.216.56.586.624.205.035.238.245.239.43.003.646.002 1.294.002 1.94l-.002 1.21c-.001.356-.116.479-.466.474-.211-.003-.293.119-.344.291-.146.489-.33.966-.552 1.426-.818 1.682-2.084 2.938-3.688 3.87-.077.045-.155.088-.233.131-.252.137-.258.146-.155.415.114.299.358.529.664.625.269.096.553.134.827.21a.672.672 0 0 1 .236.094c-.066.082-.156.067-.231.082-.36.073-.713.184-1.086.17a1.275 1.275 0 0 1-.438-.064c-.114-.045-.152-.006-.176.109a5.354 5.354 0 0 0-.084.92c-.015.617-.071 1.23-.112 1.844-.042.598-.018.651.558.842.281.094.563.187.842.286.069.024.15.038.192.117-.04.057-.098.035-.146.035-.493.003-.985.005-1.478.001-.524-.005-.806-.282-.845-.803-.055-.762-.12-1.524-.182-2.286a.947.947 0 0 0-.026-.12c-.079.455-.065.879-.084 1.298-.023.528-.008 1.057-.007 1.584 0 .27.086.388.335.483.359.135.711.295 1.114.262.141-.012.276.062.402.129.032.017.073.033.069.073-.004.043-.049.047-.084.045-.657-.019-1.317.065-1.972-.028-.323-.046-.533-.236-.631-.552-.094-.303-.114-.617-.137-.93-.046-.626-.078-1.253-.116-1.88a.222.222 0 0 0-.061-.171.282.282 0 0 0-.031.193c-.002.956-.002 1.911-.001 2.866 0 .388.123.575.494.708.481.172.976.298 1.47.423.11.028.225.047.242.192h-1.852c-.051-.01-.103-.022-.155-.03-.701-.1-1.001-.372-1.143-1.042l-.067-.331-.226-1.103c-.069.12-.118.25-.144.386-.083.399-.151.802-.243 1.2-.113.493-.444.763-.932.857l-.33.063H8.558c.057-.171.216-.185.355-.221.476-.127.96-.223 1.417-.409a.603.603 0 0 0 .397-.521c.058-.435.002-.865-.013-1.296a1.528 1.528 0 0 0-.078-.315.405.405 0 0 0-.071.207c-.026.296-.049.591-.075.886-.038.432-.273.716-.679.81a1.702 1.702 0 0 1-.37.045c-.557.003-1.115-.001-1.673-.005-.048 0-.109.019-.148-.065.178-.103.377-.168.582-.187a5.67 5.67 0 0 0 .939-.193c.42-.114.522-.249.512-.687-.023-.931-.091-1.86-.069-2.791.004-.184.001-.368.001-.551a2.387 2.387 0 0 0-.05.385 40.299 40.299 0 0 1-.186 2.623c-.052.513-.296.748-.804.805-.446.051-.889.002-1.332-.02-.108-.006-.234.012-.339-.064.043-.066.106-.07.16-.087.362-.115.725-.224 1.086-.344.246-.081.35-.235.355-.492a2.241 2.241 0 0 0-.003-.232 45.315 45.315 0 0 1-.105-2.149 5.487 5.487 0 0 0-.035-.478c-.024-.188-.131-.287-.295-.258-.505.092-.99-.006-1.473-.139-.059-.016-.134-.007-.178-.088a.986.986 0 0 1 .285-.09c.255-.052.507-.121.753-.208.312-.112.564-.347.695-.651.089-.203.056-.317-.112-.398-1.418-.683-2.512-1.73-3.391-3.017a8.152 8.152 0 0 1-1.123-2.447c-.067-.246-.156-.3-.383-.26-.306.053-.401.006-.535-.273v-3.49c.144-.303.205-.341.534-.329.235.01.247-.004.309-.242.396-1.508 1.082-2.861 2.171-3.988C6.9 1.42 8.523.631 10.34.203c.456-.108.922-.15 1.387-.203h.854Zm7.974 8.948a7.34 7.34 0 0 0-.048-.938 8.353 8.353 0 0 0-.099-.65c-.598-2.964-2.344-5.02-5.051-6.268-1.553-.715-3.21-.835-4.878-.511-3.248.633-5.396 2.583-6.539 5.652-.436 1.173-.495 2.406-.37 3.65.087.935.339 1.846.745 2.694.585 1.213 1.444 2.207 2.477 3.058.343.286.719.528 1.121.719.235.111.247.105.245-.146.006-.16.003-.32-.009-.48-.125-1.02-.142-2.045-.169-3.069a.392.392 0 0 0-.184-.353c-.385-.268-.713-.592-.921-1.019-.474-.97-.372-2.361.813-3.215.136-.097.217-.19.198-.373a1.724 1.724 0 0 1 .031-.442c.177-1.187.748-2.138 1.722-2.84.68-.492 1.442-.772 2.286-.782.483-.007.953.11 1.414.244 1.609.467 2.846 2.07 2.845 3.697a.64.64 0 0 0 .268.565c.463.371.821.83.943 1.426.22 1.077-.083 1.982-.979 2.634-.266.194-.347.406-.333.698.002.047 0 .095-.002.142l-.062 1.439c-.025.586-.138 1.165-.117 1.754.008.223.006.226.201.128a7.46 7.46 0 0 0 2.393-1.903c1.32-1.577 2.074-3.372 2.059-5.511ZM9.117 12.102c1.489.021 2.443-1.578 1.716-2.879a1.937 1.937 0 0 0-1.699-.991c-1.094-.004-1.954.822-1.958 1.881-.005 1.148.813 1.985 1.941 1.989Zm5.794 0c1.101.002 1.935-.823 1.935-1.917 0-1.091-.846-1.949-1.92-1.947-1.064.003-1.94.866-1.943 1.915-.003 1.105.831 1.948 1.928 1.949Zm-1.472 1.937c-.208.128-.407.277-.63.384-.536.257-1.063.257-1.579-.048-.158-.094-.308-.201-.464-.298-.047-.028-.092-.103-.15-.062-.044.03-.01.1-.001.151.037.179.064.362.082.544.027.565.293.992.742 1.31a.984.984 0 0 0 .791.186c.565-.119 1.025-.614 1.124-1.218.043-.266.005-.544.109-.803a.133.133 0 0 0-.024-.146Zm-8.78-4.92c-.012-1.102.143-2.055.54-2.961.633-1.443 1.642-2.553 2.98-3.374a.378.378 0 0 1 .459.067c.06.06.036.118.01.178a1.09 1.09 0 0 1-.48.51c-1.079.639-1.829 1.571-2.357 2.688a6.325 6.325 0 0 0-.618 2.986c.055 1.309.439 2.516 1.213 3.588.088.104.148.23.173.365.01.08.059.168-.031.228a.312.312 0 0 1-.288.041.502.502 0 0 1-.234-.185c-.72-.979-1.193-2.056-1.331-3.273-.036-.326-.004-.653-.036-.858ZM8.94 2.34a.373.373 0 0 1 .378-.382c.211.001.409.226.416.473.004.138-.309.39-.476.386-.189-.005-.318-.2-.318-.477Zm-.465 7.48a.609.609 0 0 1 .586-.631c.38-.003.671.271.675.633.004.356-.27.622-.639.621-.38-.002-.621-.241-.622-.623Zm6.496.623c-.381-.002-.625-.255-.621-.646a.635.635 0 0 1 .596-.613.656.656 0 0 1 .669.643c.001.354-.275.618-.644.616Z"/>
      </svg>
    </g>
    <text x="34" y="15" class="item-text">ArgoCD</text>
  </g>

</g>

<g transform="translate(1030, 150)">
  <rect width="220" height="240" class="glass-card"/>
  <rect x="20" y="25" width="12" height="12" rx="3" fill="#facc15" opacity="0.3"/>
  <rect x="20" y="25" width="12" height="12" rx="3" fill="none" stroke="#facc15" stroke-width="2"/>
  <text x="42" y="36" class="subtitle" fill="#facc15">PROGRAMMING</text>
  <line x1="20" y1="55" x2="200" y2="55" stroke="#ffffff" stroke-opacity="0.1"/>


  <g transform="translate(20, 71)">
    <g width="20" height="20" color="#facc15" opacity="1.0">
      <svg width="20" height="20" viewBox="0 0 24 24">
        <title>Python</title><path fill="currentColor" d="M14.25.18l.9.2.73.26.59.3.45.32.34.34.25.34.16.33.1.3.04.26.02.2-.01.13V8.5l-.05.63-.13.55-.21.46-.26.38-.3.31-.33.25-.35.19-.35.14-.33.1-.3.07-.26.04-.21.02H8.77l-.69.05-.59.14-.5.22-.41.27-.33.32-.27.35-.2.36-.15.37-.1.35-.07.32-.04.27-.02.21v3.06H3.17l-.21-.03-.28-.07-.32-.12-.35-.18-.36-.26-.36-.36-.35-.46-.32-.59-.28-.73-.21-.88-.14-1.05-.05-1.23.06-1.22.16-1.04.24-.87.32-.71.36-.57.4-.44.42-.33.42-.24.4-.16.36-.1.32-.05.24-.01h.16l.06.01h8.16v-.83H6.18l-.01-2.75-.02-.37.05-.34.11-.31.17-.28.25-.26.31-.23.38-.2.44-.18.51-.15.58-.12.64-.1.71-.06.77-.04.84-.02 1.27.05zm-6.3 1.98l-.23.33-.08.41.08.41.23.34.33.22.41.09.41-.09.33-.22.23-.34.08-.41-.08-.41-.23-.33-.33-.22-.41-.09-.41.09zm13.09 3.95l.28.06.32.12.35.18.36.27.36.35.35.47.32.59.28.73.21.88.14 1.04.05 1.23-.06 1.23-.16 1.04-.24.86-.32.71-.36.57-.4.45-.42.33-.42.24-.4.16-.36.09-.32.05-.24.02-.16-.01h-8.22v.82h5.84l.01 2.76.02.36-.05.34-.11.31-.17.29-.25.25-.31.24-.38.2-.44.17-.51.15-.58.13-.64.09-.71.07-.77.04-.84.01-1.27-.04-1.07-.14-.9-.2-.73-.25-.59-.3-.45-.33-.34-.34-.25-.34-.16-.33-.1-.3-.04-.25-.02-.2.01-.13v-5.34l.05-.64.13-.54.21-.46.26-.38.3-.32.33-.24.35-.2.35-.14.33-.1.3-.06.26-.04.21-.02.13-.01h5.84l.69-.05.59-.14.5-.21.41-.28.33-.32.27-.35.2-.36.15-.36.1-.35.07-.32.04-.28.02-.21V6.07h2.09l.14.01zm-6.47 14.25l-.23.33-.08.41.08.41.23.33.33.23.41.08.41-.08.33-.23.23-.33.08-.41-.08-.41-.23-.33-.33-.23-.41-.08-.41.08z"/>
      </svg>
    </g>
    <text x="34" y="15" class="item-text">Python</text>
  </g>


  <g transform="translate(20, 109)">
    <g width="20" height="20" color="#facc15" opacity="1.0">
      <svg width="20" height="20" viewBox="0 0 24 24">
        <title>GNU Bash</title><path fill="currentColor" d="M21.038,4.9l-7.577-4.498C13.009,0.134,12.505,0,12,0c-0.505,0-1.009,0.134-1.462,0.403L2.961,4.9 C2.057,5.437,1.5,6.429,1.5,7.503v8.995c0,1.073,0.557,2.066,1.462,2.603l7.577,4.497C10.991,23.866,11.495,24,12,24 c0.505,0,1.009-0.134,1.461-0.402l7.577-4.497c0.904-0.537,1.462-1.529,1.462-2.603V7.503C22.5,6.429,21.943,5.437,21.038,4.9z M15.17,18.946l0.013,0.646c0.001,0.078-0.05,0.167-0.111,0.198l-0.383,0.22c-0.061,0.031-0.111-0.007-0.112-0.085L14.57,19.29 c-0.328,0.136-0.66,0.169-0.872,0.084c-0.04-0.016-0.057-0.075-0.041-0.142l0.139-0.584c0.011-0.046,0.036-0.092,0.069-0.121 c0.012-0.011,0.024-0.02,0.036-0.026c0.022-0.011,0.043-0.014,0.062-0.006c0.229,0.077,0.521,0.041,0.802-0.101 c0.357-0.181,0.596-0.545,0.592-0.907c-0.003-0.328-0.181-0.465-0.613-0.468c-0.55,0.001-1.064-0.107-1.072-0.917 c-0.007-0.667,0.34-1.361,0.889-1.8l-0.007-0.652c-0.001-0.08,0.048-0.168,0.111-0.2l0.37-0.236 c0.061-0.031,0.111,0.007,0.112,0.087l0.006,0.653c0.273-0.109,0.511-0.138,0.726-0.088c0.047,0.012,0.067,0.076,0.048,0.151 l-0.144,0.578c-0.011,0.044-0.036,0.088-0.065,0.116c-0.012,0.012-0.025,0.021-0.038,0.028c-0.019,0.01-0.038,0.013-0.057,0.009 c-0.098-0.022-0.332-0.073-0.699,0.113c-0.385,0.195-0.52,0.53-0.517,0.778c0.003,0.297,0.155,0.387,0.681,0.396 c0.7,0.012,1.003,0.318,1.01,1.023C16.105,17.747,15.736,18.491,15.17,18.946z M19.143,17.859c0,0.06-0.008,0.116-0.058,0.145 l-1.916,1.164c-0.05,0.029-0.09,0.004-0.09-0.056v-0.494c0-0.06,0.037-0.093,0.087-0.122l1.887-1.129 c0.05-0.029,0.09-0.004,0.09,0.056V17.859z M20.459,6.797l-7.168,4.427c-0.894,0.523-1.553,1.109-1.553,2.187v8.833 c0,0.645,0.26,1.063,0.66,1.184c-0.131,0.023-0.264,0.039-0.398,0.039c-0.42,0-0.833-0.114-1.197-0.33L3.226,18.64 c-0.741-0.44-1.201-1.261-1.201-2.142V7.503c0-0.881,0.46-1.702,1.201-2.142l7.577-4.498c0.363-0.216,0.777-0.33,1.197-0.33 c0.419,0,0.833,0.114,1.197,0.33l7.577,4.498c0.624,0.371,1.046,1.013,1.164,1.732C21.686,6.557,21.12,6.411,20.459,6.797z"/>
      </svg>
    </g>
    <text x="34" y="15" class="item-text">Bash / Shell</text>
  </g>


  <g transform="translate(20, 147)">
    <g width="20" height="20" color="#facc15" opacity="1.0">
      <svg width="20" height="20" viewBox="0 0 24 24">
        <title>JavaScript</title><path fill="currentColor" d="M0 0h24v24H0V0zm22.034 18.276c-.175-1.095-.888-2.015-3.003-2.873-.736-.345-1.554-.585-1.797-1.14-.091-.33-.105-.51-.046-.705.15-.646.915-.84 1.515-.66.39.12.75.42.976.9 1.034-.676 1.034-.676 1.755-1.125-.27-.42-.404-.601-.586-.78-.63-.705-1.469-1.065-2.834-1.034l-.705.089c-.676.165-1.32.525-1.71 1.005-1.14 1.291-.811 3.541.569 4.471 1.365 1.02 3.361 1.244 3.616 2.205.24 1.17-.87 1.545-1.966 1.41-.811-.18-1.26-.586-1.755-1.336l-1.83 1.051c.21.48.45.689.81 1.109 1.74 1.756 6.09 1.666 6.871-1.004.029-.09.24-.705.074-1.65l.046.067zm-8.983-7.245h-2.248c0 1.938-.009 3.864-.009 5.805 0 1.232.063 2.363-.138 2.711-.33.689-1.18.601-1.566.48-.396-.196-.597-.466-.83-.855-.063-.105-.11-.196-.127-.196l-1.825 1.125c.305.63.75 1.172 1.324 1.517.855.51 2.004.675 3.207.405.783-.226 1.458-.691 1.811-1.411.51-.93.402-2.07.397-3.346.012-2.054 0-4.109 0-6.179l.004-.056z"/>
      </svg>
    </g>
    <text x="34" y="15" class="item-text">JavaScript</text>
  </g>

</g>

<g transform="translate(50, 430)">
  <rect width="220" height="240" class="glass-card"/>
  <rect x="20" y="25" width="12" height="12" rx="3" fill="#f87171" opacity="0.3"/>
  <rect x="20" y="25" width="12" height="12" rx="3" fill="none" stroke="#f87171" stroke-width="2"/>
  <text x="42" y="36" class="subtitle" fill="#f87171">MONITORING</text>
  <line x1="20" y1="55" x2="200" y2="55" stroke="#ffffff" stroke-opacity="0.1"/>


  <g transform="translate(20, 71)">
    <g width="20" height="20" color="#f87171" opacity="1.0">
      <svg width="20" height="20" viewBox="0 0 24 24">
        <title>Prometheus</title><path fill="currentColor" d="M12 0C5.373 0 0 5.372 0 12c0 6.627 5.373 12 12 12s12-5.373 12-12c0-6.628-5.373-12-12-12zm0 22.46c-1.885 0-3.414-1.26-3.414-2.814h6.828c0 1.553-1.528 2.813-3.414 2.813zm5.64-3.745H6.36v-2.046h11.28v2.046zm-.04-3.098H6.391c-.037-.043-.075-.086-.111-.13-1.155-1.401-1.427-2.133-1.69-2.879-.005-.025 1.4.287 2.395.511 0 0 .513.119 1.262.255-.72-.843-1.147-1.915-1.147-3.01 0-2.406 1.845-4.508 1.18-6.207.648.053 1.34 1.367 1.387 3.422.689-.951.977-2.69.977-3.755 0-1.103.727-2.385 1.454-2.429-.648 1.069.168 1.984.894 4.256.272.854.237 2.29.447 3.201.07-1.892.395-4.652 1.595-5.605-.529 1.2.079 2.702.494 3.424.671 1.164 1.078 2.047 1.078 3.716a4.642 4.642 0 01-1.11 2.996c.792-.149 1.34-.283 1.34-.283l2.573-.502s-.374 1.538-1.81 3.019z"/>
      </svg>
    </g>
    <text x="34" y="15" class="item-text">Prometheus</text>
  </g>


  <g transform="translate(20, 109)">
    <g width="20" height="20" color="#f87171" opacity="1.0">
      <svg width="20" height="20" viewBox="0 0 24 24">
        <title>Grafana</title><path fill="currentColor" d="M23.02 10.59a8.578 8.578 0 0 0-.862-3.034 8.911 8.911 0 0 0-1.789-2.445c.337-1.342-.413-2.505-.413-2.505-1.292-.08-2.113.4-2.416.62-.052-.02-.102-.044-.154-.064-.22-.089-.446-.172-.677-.247-.231-.073-.47-.14-.711-.197a9.867 9.867 0 0 0-.875-.161C14.557.753 12.94 0 12.94 0c-1.804 1.145-2.147 2.744-2.147 2.744l-.018.093c-.098.029-.2.057-.298.088-.138.042-.275.094-.413.143-.138.055-.275.107-.41.166a8.869 8.869 0 0 0-1.557.87l-.063-.029c-2.497-.955-4.716.195-4.716.195-.203 2.658.996 4.33 1.235 4.636a11.608 11.608 0 0 0-.607 2.635C1.636 12.677.953 15.014.953 15.014c1.926 2.214 4.171 2.351 4.171 2.351.003-.002.006-.002.006-.005.285.509.615.994.986 1.446.156.19.32.371.488.548-.704 2.009.099 3.68.099 3.68 2.144.08 3.553-.937 3.849-1.173a9.784 9.784 0 0 0 3.164.501h.08l.055-.003.107-.002.103-.005.003.002c1.01 1.44 2.788 1.646 2.788 1.646 1.264-1.332 1.337-2.653 1.337-2.94v-.058c0-.02-.003-.039-.003-.06.265-.187.52-.387.758-.6a7.875 7.875 0 0 0 1.415-1.7c1.43.083 2.437-.885 2.437-.885-.236-1.49-1.085-2.216-1.264-2.354l-.018-.013-.016-.013a.217.217 0 0 1-.031-.02c.008-.092.016-.18.02-.27.011-.162.016-.323.016-.48v-.253l-.005-.098-.008-.135a1.891 1.891 0 0 0-.01-.13c-.003-.042-.008-.083-.013-.125l-.016-.124-.018-.122a6.215 6.215 0 0 0-2.032-3.73 6.015 6.015 0 0 0-3.222-1.46 6.292 6.292 0 0 0-.85-.048l-.107.002h-.063l-.044.003-.104.008a4.777 4.777 0 0 0-3.335 1.695c-.332.4-.592.84-.768 1.297a4.594 4.594 0 0 0-.312 1.817l.003.091c.005.055.007.11.013.164a3.615 3.615 0 0 0 .698 1.82 3.53 3.53 0 0 0 1.827 1.282c.33.098.66.14.971.137.039 0 .078 0 .114-.002l.063-.003c.02 0 .041-.003.062-.003.034-.002.065-.007.099-.01.007 0 .018-.003.028-.003l.031-.005.06-.008a1.18 1.18 0 0 0 .112-.02c.036-.008.072-.013.109-.024a2.634 2.634 0 0 0 .914-.415c.028-.02.056-.041.085-.065a.248.248 0 0 0 .039-.35.244.244 0 0 0-.309-.06l-.078.042c-.09.044-.184.083-.283.116a2.476 2.476 0 0 1-.475.096c-.028.003-.054.006-.083.006l-.083.002c-.026 0-.054 0-.08-.002l-.102-.006h-.012l-.024.006c-.016-.003-.031-.003-.044-.006-.031-.002-.06-.007-.091-.01a2.59 2.59 0 0 1-.724-.213 2.557 2.557 0 0 1-.667-.438 2.52 2.52 0 0 1-.805-1.475 2.306 2.306 0 0 1-.029-.444l.006-.122v-.023l.002-.031c.003-.021.003-.04.005-.06a3.163 3.163 0 0 1 1.352-2.29 3.12 3.12 0 0 1 .937-.43 2.946 2.946 0 0 1 .776-.101h.06l.07.002.045.003h.026l.07.005a4.041 4.041 0 0 1 1.635.49 3.94 3.94 0 0 1 1.602 1.662 3.77 3.77 0 0 1 .397 1.414l.005.076.003.075c.002.026.002.05.002.075 0 .024.003.052 0 .07v.065l-.002.073-.008.174a6.195 6.195 0 0 1-.08.639 5.1 5.1 0 0 1-.267.927 5.31 5.31 0 0 1-.624 1.13 5.052 5.052 0 0 1-3.237 2.014 4.82 4.82 0 0 1-.649.066l-.039.003h-.287a6.607 6.607 0 0 1-1.716-.265 6.776 6.776 0 0 1-3.4-2.274 6.75 6.75 0 0 1-.746-1.15 6.616 6.616 0 0 1-.714-2.596l-.005-.083-.002-.02v-.056l-.003-.073v-.096l-.003-.104v-.07l.003-.163c.008-.22.026-.45.054-.678a8.707 8.707 0 0 1 .28-1.355c.128-.444.286-.872.473-1.277a7.04 7.04 0 0 1 1.456-2.1 5.925 5.925 0 0 1 .953-.763c.169-.111.343-.213.524-.306.089-.05.182-.091.273-.135.047-.02.093-.042.138-.062a7.177 7.177 0 0 1 .714-.267l.145-.045c.049-.015.098-.026.148-.041.098-.029.197-.052.296-.076.049-.013.1-.02.15-.033l.15-.032.151-.028.076-.013.075-.01.153-.024c.057-.01.114-.013.171-.023l.169-.021c.036-.003.073-.008.106-.01l.073-.008.036-.003.042-.002c.057-.003.114-.008.171-.01l.086-.006h.023l.037-.003.145-.007a7.999 7.999 0 0 1 1.708.125 7.917 7.917 0 0 1 2.048.68 8.253 8.253 0 0 1 1.672 1.09l.09.077.089.078c.06.052.114.107.171.159.057.052.112.106.166.16.052.055.107.107.159.164a8.671 8.671 0 0 1 1.41 1.978c.012.026.028.052.04.078l.04.078.075.156c.023.051.05.1.07.153l.065.15a8.848 8.848 0 0 1 .45 1.34.19.19 0 0 0 .201.142.186.186 0 0 0 .172-.184c.01-.246.002-.532-.024-.856z"/>
      </svg>
    </g>
    <text x="34" y="15" class="item-text">Grafana</text>
  </g>


  <g transform="translate(20, 147)">
    <g width="20" height="20" color="#f87171" opacity="1.0">
      <svg width="20" height="20" viewBox="0 0 24 24">
        <title>SonarQube</title><path fill="currentColor" d="M15.685.386l-.465.766c3.477 2.112 6.305 5.27 7.966 8.89L24 9.67C22.266 5.887 19.313 2.59 15.685.386zM8.462.91l-.305 1.075c6.89 1.976 12.384 7.64 13.997 14.421l1.085-.258C21.535 8.977 15.735 2.997 8.462.909zM0 2.667v1.342c10.963 0 19.883 8.795 19.883 19.605h1.342c0-11.55-9.522-20.947-21.225-20.947z"/>
      </svg>
    </g>
    <text x="34" y="15" class="item-text">SonarQube</text>
  </g>

</g>

<g transform="translate(295, 430)">
  <rect width="220" height="240" class="glass-card"/>
  <rect x="20" y="25" width="12" height="12" rx="3" fill="#34d399" opacity="0.3"/>
  <rect x="20" y="25" width="12" height="12" rx="3" fill="none" stroke="#34d399" stroke-width="2"/>
  <text x="42" y="36" class="subtitle" fill="#34d399">WEB / PROXIES</text>
  <line x1="20" y1="55" x2="200" y2="55" stroke="#ffffff" stroke-opacity="0.1"/>


  <g transform="translate(20, 71)">
    <g width="20" height="20" color="#34d399" opacity="1.0">
      <svg width="20" height="20" viewBox="0 0 24 24">
        <title>NGINX</title><path fill="currentColor" d="M12 0L1.605 6v12L12 24l10.395-6V6L12 0zm6 16.59c0 .705-.646 1.29-1.529 1.29-.631 0-1.351-.255-1.801-.81l-6-7.141v6.66c0 .721-.57 1.29-1.274 1.29H7.32c-.721 0-1.29-.6-1.29-1.29V7.41c0-.705.63-1.29 1.5-1.29.646 0 1.38.255 1.83.81l5.97 7.141V7.41c0-.721.6-1.29 1.29-1.29h.075c.72 0 1.29.6 1.29 1.29v9.18H18z"/>
      </svg>
    </g>
    <text x="34" y="15" class="item-text">NGINX</text>
  </g>


  <g transform="translate(20, 109)">
    <g width="20" height="20" color="#34d399" opacity="1.0">
      <svg width="20" height="20" viewBox="0 0 24 24">
        <circle cx="12" cy="12" r="6" fill="currentColor"/>
      </svg>
    </g>
    <text x="34" y="15" class="item-text">HAProxy</text>
  </g>


  <g transform="translate(20, 147)">
    <g width="20" height="20" color="#34d399" opacity="1.0">
      <svg width="20" height="20" viewBox="0 0 24 24">
        <title>Apache</title><path fill="currentColor" d="M17.805 2.197v.066h.156v.44h.072v-.44h.156v-.066zm.9 0l-.175.353-.172-.353h-.087v.506h.067V2.3l.172.35h.045l.172-.35v.404h.066v-.506zm-4.257 1c-.204.31-.424.66-.66 1.06l-.04.062a44.457 44.457 0 00-1.265 2.29c-.187.36-.38.742-.577 1.146l2.267-.25c.66-.302.955-.578 1.242-.976a15.5 15.5 0 00.23-.342c.23-.363.46-.763.663-1.16.197-.386.37-.767.505-1.11.083-.22.15-.422.198-.6.042-.158.074-.307.1-.45-.884.15-1.965.295-2.668.33zM11.894 7.78l-.077.16c-.078.16-.157.32-.236.488-.086.18-.172.364-.26.552l-.132.287a75.265 75.265 0 00-1.427 3.3c-.163.397-.327.807-.493 1.23-.15.38-.297.765-.45 1.164l-.02.06c-.15.396-.3.802-.453 1.22l-.01.027.72-.08a.213.213 0 01-.042-.006c.863-.106 2.01-.75 2.75-1.547.342-.367.652-.8.94-1.306.213-.377.413-.795.604-1.258.168-.405.328-.843.48-1.318-.196.105-.423.18-.673.235a2.184 2.184 0 01-.273.046c.806-.31 1.314-.905 1.683-1.64a2.816 2.816 0 01-.968.428c-.06.012-.116.022-.174.03l-.043.006h.002c.278-.118.514-.248.718-.403a2.571 2.571 0 00.637-.698l.063-.104.077-.154a8.107 8.107 0 00.367-.85l.03-.088a3.04 3.04 0 00.123-.463.733.733 0 01-.094.065c-.243.145-.66.277-.996.34l.663-.074-.664.073h-.017l-.1.017c.006-.003.01-.006.017-.008l-2.265.25-.013.022zM8.27 16.45c-.117.323-.236.654-.355.992l-.005.015c-.016.046-.032.094-.05.142-.08.227-.15.432-.31.9.264.12.475.435.675.793a1.44 1.44 0 00-.466-.99c1.293.06 2.41-.27 2.99-1.217.05-.084.096-.173.14-.268-.26.333-.59.474-1.2.44 0 0-.004 0-.005.002l.004-.002c.9-.404 1.354-.79 1.754-1.433.094-.153.186-.32.28-.503-.788.81-1.702 1.04-2.664.865l-.72.078a6.43 6.43 0 00-.067.183zM15.42.112c-.376.222-1 .85-1.748 1.763l.686 1.294c.48-.687.97-1.307 1.462-1.836l.058-.062c-.02.02-.04.04-.057.062-.16.176-.644.74-1.375 1.863.703-.035 1.784-.18 2.666-.33.262-1.47-.258-2.142-.258-2.142s-.66-1.07-1.436-.61zm-3.084 6.402a40.253 40.253 0 011.306-2.26l.04-.064c.224-.352.45-.693.677-1.02l-.685-1.293-.157.192c-.197.245-.403.51-.613.79a39.853 39.853 0 00-2.016 2.97l-.022.038.893 1.763c.19-.378.38-.752.575-1.118zm-3.73 8.32c.158-.406.319-.81.483-1.225.156-.394.32-.79.484-1.19a91.133 91.133 0 011.6-3.604l.205-.424c.12-.243.237-.485.36-.724a.125.125 0 01.02-.04l-.895-1.763-.044.07c-.207.34-.414.687-.617 1.042a38.056 38.056 0 00-1.092 2.04l-.094.193a24.573 24.573 0 00-1.258 3.087 18.492 18.492 0 00-.52 1.997l.896 1.77c.117-.317.24-.638.364-.963zm-1.376-.476a13.38 13.38 0 00-.234 1.692c0 .02-.004.04-.005.06-.28-.45-1.03-.888-1.026-.884.537.778.944 1.55 1.005 2.31-.29.058-.684-.027-1.14-.195.475.436.83.556.97.588-.434.03-.89.328-1.346.67.668-.27 1.21-.38 1.596-.29-.61 1.74-1.23 3.655-1.843 5.69a.538.538 0 00.364-.354c.11-.368.84-2.786 1.978-5.965l.097-.27.028-.078c.12-.332.246-.672.374-1.02l.09-.237v-.004L7.24 14.3c-.003.02-.01.04-.012.06z"/>
      </svg>
    </g>
    <text x="34" y="15" class="item-text">Apache</text>
  </g>

</g>

<g transform="translate(540, 430)">
  <rect width="220" height="240" class="glass-card"/>
  <rect x="20" y="25" width="12" height="12" rx="3" fill="#fbbf24" opacity="0.3"/>
  <rect x="20" y="25" width="12" height="12" rx="3" fill="none" stroke="#fbbf24" stroke-width="2"/>
  <text x="42" y="36" class="subtitle" fill="#fbbf24">MESSAGING</text>
  <line x1="20" y1="55" x2="200" y2="55" stroke="#ffffff" stroke-opacity="0.1"/>


  <g transform="translate(20, 71)">
    <g width="20" height="20" color="#fbbf24" opacity="1.0">
      <svg width="20" height="20" viewBox="0 0 24 24">
        <title>Apache Kafka</title><path fill="currentColor" d="M9.71 2.136a1.43 1.43 0 0 0-2.047 0h-.007a1.48 1.48 0 0 0-.421 1.042c0 .41.161.777.422 1.039l.007.007c.257.264.616.426 1.019.426.404 0 .766-.162 1.027-.426l.003-.007c.261-.262.421-.629.421-1.039 0-.408-.159-.777-.421-1.042H9.71zM8.683 22.295c.404 0 .766-.167 1.027-.429l.003-.008c.261-.261.421-.631.421-1.036 0-.41-.159-.778-.421-1.044H9.71a1.42 1.42 0 0 0-1.027-.432 1.4 1.4 0 0 0-1.02.432h-.007c-.26.266-.422.634-.422 1.044 0 .406.161.775.422 1.036l.007.008c.258.262.617.429 1.02.429zm7.89-4.462c.359-.096.683-.33.882-.684l.027-.052a1.47 1.47 0 0 0 .114-1.067 1.454 1.454 0 0 0-.675-.896l-.021-.014a1.425 1.425 0 0 0-1.078-.132c-.36.091-.684.335-.881.686-.2.349-.241.75-.146 1.119.099.363.33.691.675.896h.002c.346.203.737.239 1.101.144zm-6.405-7.342a2.083 2.083 0 0 0-1.485-.627c-.58 0-1.103.242-1.482.627-.378.385-.612.916-.612 1.507s.233 1.124.612 1.514a2.08 2.08 0 0 0 2.967 0c.379-.39.612-.923.612-1.514s-.233-1.122-.612-1.507zm-.835-2.51c.843.141 1.6.552 2.178 1.144h.004c.092.093.182.196.265.299l1.446-.851a3.176 3.176 0 0 1-.047-1.808 3.149 3.149 0 0 1 1.456-1.926l.025-.016a3.062 3.062 0 0 1 2.345-.306c.77.21 1.465.721 1.898 1.482v.002c.431.757.518 1.626.313 2.408a3.145 3.145 0 0 1-1.456 1.928l-.198.118h-.02a3.095 3.095 0 0 1-2.154.201 3.127 3.127 0 0 1-1.514-.944l-1.444.848a4.162 4.162 0 0 1 0 2.879l1.444.846c.413-.47.939-.789 1.514-.944a3.041 3.041 0 0 1 2.371.319l.048.023v.002a3.17 3.17 0 0 1 1.408 1.906 3.215 3.215 0 0 1-.313 2.405l-.026.053-.003-.005a3.147 3.147 0 0 1-1.867 1.436 3.096 3.096 0 0 1-2.371-.318v-.006a3.156 3.156 0 0 1-1.456-1.927 3.175 3.175 0 0 1 .047-1.805l-1.446-.848a3.905 3.905 0 0 1-.265.294l-.004.005a3.938 3.938 0 0 1-2.178 1.138v1.699a3.09 3.09 0 0 1 1.56.862l.002.004c.565.572.914 1.368.914 2.243 0 .873-.35 1.664-.914 2.239l-.002.009a3.1 3.1 0 0 1-2.21.931 3.1 3.1 0 0 1-2.206-.93h-.002v-.009a3.186 3.186 0 0 1-.916-2.239c0-.875.35-1.672.916-2.243v-.004h.002a3.1 3.1 0 0 1 1.558-.862v-1.699a3.926 3.926 0 0 1-2.176-1.138l-.006-.005a4.098 4.098 0 0 1-1.173-2.874c0-1.122.452-2.136 1.173-2.872h.006a3.947 3.947 0 0 1 2.176-1.144V6.289a3.137 3.137 0 0 1-1.558-.864h-.002v-.004a3.192 3.192 0 0 1-.916-2.243c0-.871.35-1.669.916-2.243l.002-.002A3.084 3.084 0 0 1 8.683 0c.861 0 1.641.355 2.21.932v.002h.002c.565.574.914 1.372.914 2.243 0 .876-.35 1.667-.914 2.243l-.002.005a3.142 3.142 0 0 1-1.56.864v1.692zm8.121-1.129l-.012-.019a1.452 1.452 0 0 0-.87-.668 1.43 1.43 0 0 0-1.103.146h.002c-.347.2-.58.529-.677.896-.095.365-.054.768.146 1.119l.007.009c.2.347.519.579.874.673.357.103.755.059 1.098-.144l.019-.009a1.47 1.47 0 0 0 .657-.885 1.493 1.493 0 0 0-.141-1.118"/>
      </svg>
    </g>
    <text x="34" y="15" class="item-text">Kafka</text>
  </g>


  <g transform="translate(20, 109)">
    <g width="20" height="20" color="#fbbf24" opacity="1.0">
      <svg width="20" height="20" viewBox="0 0 24 24">
        <title>RabbitMQ</title><path fill="currentColor" d="M23.035 9.601h-7.677a.956.956 0 01-.962-.962V.962a.956.956 0 00-.962-.956H10.56a.956.956 0 00-.962.956V8.64a.956.956 0 01-.962.962H5.762a.956.956 0 01-.961-.962V.962A.956.956 0 003.839 0H.959a.956.956 0 00-.956.962v22.076A.956.956 0 00.965 24h22.07a.956.956 0 00.962-.962V10.58a.956.956 0 00-.962-.98zm-3.86 8.152a1.437 1.437 0 01-1.437 1.443h-1.924a1.437 1.437 0 01-1.436-1.443v-1.917a1.437 1.437 0 011.436-1.443h1.924a1.437 1.437 0 011.437 1.443z"/>
      </svg>
    </g>
    <text x="34" y="15" class="item-text">RabbitMQ</text>
  </g>


  <g transform="translate(20, 147)">
    <g width="20" height="20" color="#fbbf24" opacity="1.0">
      <svg width="20" height="20" viewBox="0 0 24 24">
        <title>Amazon AWS</title><path fill="currentColor" d="M6.763 10.036c0 .296.032.535.088.71.064.176.144.368.256.576.04.063.056.127.056.183 0 .08-.048.16-.152.24l-.503.335a.383.383 0 0 1-.208.072c-.08 0-.16-.04-.239-.112a2.47 2.47 0 0 1-.287-.375 6.18 6.18 0 0 1-.248-.471c-.622.734-1.405 1.101-2.347 1.101-.67 0-1.205-.191-1.596-.574-.391-.384-.59-.894-.59-1.533 0-.678.239-1.23.726-1.644.487-.415 1.133-.623 1.955-.623.272 0 .551.024.846.064.296.04.6.104.918.176v-.583c0-.607-.127-1.03-.375-1.277-.255-.248-.686-.367-1.3-.367-.28 0-.568.031-.863.103-.295.072-.583.16-.862.272a2.287 2.287 0 0 1-.28.104.488.488 0 0 1-.127.023c-.112 0-.168-.08-.168-.247v-.391c0-.128.016-.224.056-.28a.597.597 0 0 1 .224-.167c.279-.144.614-.264 1.005-.36a4.84 4.84 0 0 1 1.246-.151c.95 0 1.644.216 2.091.647.439.43.662 1.085.662 1.963v2.586zm-3.24 1.214c.263 0 .534-.048.822-.144.287-.096.543-.271.758-.51.128-.152.224-.32.272-.512.047-.191.08-.423.08-.694v-.335a6.66 6.66 0 0 0-.735-.136 6.02 6.02 0 0 0-.75-.048c-.535 0-.926.104-1.19.32-.263.215-.39.518-.39.917 0 .375.095.655.295.846.191.2.47.296.838.296zm6.41.862c-.144 0-.24-.024-.304-.08-.064-.048-.12-.16-.168-.311L7.586 5.55a1.398 1.398 0 0 1-.072-.32c0-.128.064-.2.191-.2h.783c.151 0 .255.025.31.08.065.048.113.16.16.312l1.342 5.284 1.245-5.284c.04-.16.088-.264.151-.312a.549.549 0 0 1 .32-.08h.638c.152 0 .256.025.32.08.063.048.12.16.151.312l1.261 5.348 1.381-5.348c.048-.16.104-.264.16-.312a.52.52 0 0 1 .311-.08h.743c.127 0 .2.065.2.2 0 .04-.009.08-.017.128a1.137 1.137 0 0 1-.056.2l-1.923 6.17c-.048.16-.104.263-.168.311a.51.51 0 0 1-.303.08h-.687c-.151 0-.255-.024-.32-.08-.063-.056-.119-.16-.15-.32l-1.238-5.148-1.23 5.14c-.04.16-.087.264-.15.32-.065.056-.177.08-.32.08zm10.256.215c-.415 0-.83-.048-1.229-.143-.399-.096-.71-.2-.918-.32-.128-.071-.215-.151-.247-.223a.563.563 0 0 1-.048-.224v-.407c0-.167.064-.247.183-.247.048 0 .096.008.144.024.048.016.12.048.2.08.271.12.566.215.878.279.319.064.63.096.95.096.502 0 .894-.088 1.165-.264a.86.86 0 0 0 .415-.758.777.777 0 0 0-.215-.559c-.144-.151-.416-.287-.807-.415l-1.157-.36c-.583-.183-1.014-.454-1.277-.813a1.902 1.902 0 0 1-.4-1.158c0-.335.073-.63.216-.886.144-.255.335-.479.575-.654.24-.184.51-.32.83-.415.32-.096.655-.136 1.006-.136.175 0 .359.008.535.032.183.024.35.056.518.088.16.04.312.08.455.127.144.048.256.096.336.144a.69.69 0 0 1 .24.2.43.43 0 0 1 .071.263v.375c0 .168-.064.256-.184.256a.83.83 0 0 1-.303-.096 3.652 3.652 0 0 0-1.532-.311c-.455 0-.815.071-1.062.223-.248.152-.375.383-.375.71 0 .224.08.416.24.567.159.152.454.304.877.44l1.134.358c.574.184.99.44 1.237.767.247.327.367.702.367 1.117 0 .343-.072.655-.207.926-.144.272-.336.511-.583.703-.248.2-.543.343-.886.447-.36.111-.734.167-1.142.167zM21.698 16.207c-2.626 1.94-6.442 2.969-9.722 2.969-4.598 0-8.74-1.7-11.87-4.526-.247-.223-.024-.527.272-.351 3.384 1.963 7.559 3.153 11.877 3.153 2.914 0 6.114-.607 9.06-1.852.439-.2.814.287.383.607zM22.792 14.961c-.336-.43-2.22-.207-3.074-.103-.255.032-.295-.192-.063-.36 1.5-1.053 3.967-.75 4.254-.399.287.36-.08 2.826-1.485 4.007-.215.184-.423.088-.327-.151.32-.79 1.03-2.57.695-2.994z"/>
      </svg>
    </g>
    <text x="34" y="15" class="item-text">Amazon SQS/SNS</text>
  </g>

</g>

<g transform="translate(785, 430)">
  <rect width="220" height="240" class="glass-card"/>
  <rect x="20" y="25" width="12" height="12" rx="3" fill="#2dd4bf" opacity="0.3"/>
  <rect x="20" y="25" width="12" height="12" rx="3" fill="none" stroke="#2dd4bf" stroke-width="2"/>
  <text x="42" y="36" class="subtitle" fill="#2dd4bf">ARCHITECTURE</text>
  <line x1="20" y1="55" x2="200" y2="55" stroke="#ffffff" stroke-opacity="0.1"/>


  <g transform="translate(20, 71)">
    <g width="20" height="20" color="#2dd4bf" opacity="1.0">
      <svg width="20" height="20" viewBox="0 0 24 24">
        <title>Linux</title><path fill="currentColor" d="M12.504 0c-.155 0-.315.008-.48.021-4.226.333-3.105 4.807-3.17 6.298-.076 1.092-.3 1.953-1.05 3.02-.885 1.051-2.127 2.75-2.716 4.521-.278.832-.41 1.684-.287 2.489a.424.424 0 00-.11.135c-.26.268-.45.6-.663.839-.199.199-.485.267-.797.4-.313.136-.658.269-.864.68-.09.189-.136.394-.132.602 0 .199.027.4.055.536.058.399.116.728.04.97-.249.68-.28 1.145-.106 1.484.174.334.535.47.94.601.81.2 1.91.135 2.774.6.926.466 1.866.67 2.616.47.526-.116.97-.464 1.208-.946.587-.003 1.23-.269 2.26-.334.699-.058 1.574.267 2.577.2.025.134.063.198.114.333l.003.003c.391.778 1.113 1.132 1.884 1.071.771-.06 1.592-.536 2.257-1.306.631-.765 1.683-1.084 2.378-1.503.348-.199.629-.469.649-.853.023-.4-.2-.811-.714-1.376v-.097l-.003-.003c-.17-.2-.25-.535-.338-.926-.085-.401-.182-.786-.492-1.046h-.003c-.059-.054-.123-.067-.188-.135a.357.357 0 00-.19-.064c.431-1.278.264-2.55-.173-3.694-.533-1.41-1.465-2.638-2.175-3.483-.796-1.005-1.576-1.957-1.56-3.368.026-2.152.236-6.133-3.544-6.139zm.529 3.405h.013c.213 0 .396.062.584.198.19.135.33.332.438.533.105.259.158.459.166.724 0-.02.006-.04.006-.06v.105a.086.086 0 01-.004-.021l-.004-.024a1.807 1.807 0 01-.15.706.953.953 0 01-.213.335.71.71 0 00-.088-.042c-.104-.045-.198-.064-.284-.133a1.312 1.312 0 00-.22-.066c.05-.06.146-.133.183-.198.053-.128.082-.264.088-.402v-.02a1.21 1.21 0 00-.061-.4c-.045-.134-.101-.2-.183-.333-.084-.066-.167-.132-.267-.132h-.016c-.093 0-.176.03-.262.132a.8.8 0 00-.205.334 1.18 1.18 0 00-.09.4v.019c.002.089.008.179.02.267-.193-.067-.438-.135-.607-.202a1.635 1.635 0 01-.018-.2v-.02a1.772 1.772 0 01.15-.768c.082-.22.232-.406.43-.533a.985.985 0 01.594-.2zm-2.962.059h.036c.142 0 .27.048.399.135.146.129.264.288.344.465.09.199.14.4.153.667v.004c.007.134.006.2-.002.266v.08c-.03.007-.056.018-.083.024-.152.055-.274.135-.393.2.012-.09.013-.18.003-.267v-.015c-.012-.133-.04-.2-.082-.333a.613.613 0 00-.166-.267.248.248 0 00-.183-.064h-.021c-.071.006-.13.04-.186.132a.552.552 0 00-.12.27.944.944 0 00-.023.33v.015c.012.135.037.2.08.334.046.134.098.2.166.268.01.009.02.018.034.024-.07.057-.117.07-.176.136a.304.304 0 01-.131.068 2.62 2.62 0 01-.275-.402 1.772 1.772 0 01-.155-.667 1.759 1.759 0 01.08-.668 1.43 1.43 0 01.283-.535c.128-.133.26-.2.418-.2zm1.37 1.706c.332 0 .733.065 1.216.399.293.2.523.269 1.052.468h.003c.255.136.405.266.478.399v-.131a.571.571 0 01.016.47c-.123.31-.516.643-1.063.842v.002c-.268.135-.501.333-.775.465-.276.135-.588.292-1.012.267a1.139 1.139 0 01-.448-.067 3.566 3.566 0 01-.322-.198c-.195-.135-.363-.332-.612-.465v-.005h-.005c-.4-.246-.616-.512-.686-.71-.07-.268-.005-.47.193-.6.224-.135.38-.271.483-.336.104-.074.143-.102.176-.131h.002v-.003c.169-.202.436-.47.839-.601.139-.036.294-.065.466-.065zm2.8 2.142c.358 1.417 1.196 3.475 1.735 4.473.286.534.855 1.659 1.102 3.024.156-.005.33.018.513.064.646-1.671-.546-3.467-1.089-3.966-.22-.2-.232-.335-.123-.335.59.534 1.365 1.572 1.646 2.757.13.535.16 1.104.021 1.67.067.028.135.06.205.067 1.032.534 1.413.938 1.23 1.537v-.043c-.06-.003-.12 0-.18 0h-.016c.151-.467-.182-.825-1.065-1.224-.915-.4-1.646-.336-1.77.465-.008.043-.013.066-.018.135-.068.023-.139.053-.209.064-.43.268-.662.669-.793 1.187-.13.533-.17 1.156-.205 1.869v.003c-.02.334-.17.838-.319 1.35-1.5 1.072-3.58 1.538-5.348.334a2.645 2.645 0 00-.402-.533 1.45 1.45 0 00-.275-.333c.182 0 .338-.03.465-.067a.615.615 0 00.314-.334c.108-.267 0-.697-.345-1.163-.345-.467-.931-.995-1.788-1.521-.63-.4-.986-.87-1.15-1.396-.165-.534-.143-1.085-.015-1.645.245-1.07.873-2.11 1.274-2.763.107-.065.037.135-.408.974-.396.751-1.14 2.497-.122 3.854a8.123 8.123 0 01.647-2.876c.564-1.278 1.743-3.504 1.836-5.268.048.036.217.135.289.202.218.133.38.333.59.465.21.201.477.335.876.335.039.003.075.006.11.006.412 0 .73-.134.997-.268.29-.134.52-.334.74-.4h.005c.467-.135.835-.402 1.044-.7zm2.185 8.958c.037.6.343 1.245.882 1.377.588.134 1.434-.333 1.791-.765l.211-.01c.315-.007.577.01.847.268l.003.003c.208.199.305.53.391.876.085.4.154.78.409 1.066.486.527.645.906.636 1.14l.003-.007v.018l-.003-.012c-.015.262-.185.396-.498.595-.63.401-1.746.712-2.457 1.57-.618.737-1.37 1.14-2.036 1.191-.664.053-1.237-.2-1.574-.898l-.005-.003c-.21-.4-.12-1.025.056-1.69.176-.668.428-1.344.463-1.897.037-.714.076-1.335.195-1.814.12-.465.308-.797.641-.984l.045-.022zm-10.814.049h.01c.053 0 .105.005.157.014.376.055.706.333 1.023.752l.91 1.664.003.003c.243.533.754 1.064 1.189 1.637.434.598.77 1.131.729 1.57v.006c-.057.744-.48 1.148-1.125 1.294-.645.135-1.52.002-2.395-.464-.968-.536-2.118-.469-2.857-.602-.369-.066-.61-.2-.723-.4-.11-.2-.113-.602.123-1.23v-.004l.002-.003c.117-.334.03-.752-.027-1.118-.055-.401-.083-.71.043-.94.16-.334.396-.4.69-.533.294-.135.64-.202.915-.47h.002v-.002c.256-.268.445-.601.668-.838.19-.201.38-.336.663-.336zm7.159-9.074c-.435.201-.945.535-1.488.535-.542 0-.97-.267-1.28-.466-.154-.134-.28-.268-.373-.335-.164-.134-.144-.333-.074-.333.109.016.129.134.199.2.096.066.215.2.36.333.292.2.68.467 1.167.467.485 0 1.053-.267 1.398-.466.195-.135.445-.334.648-.467.156-.136.149-.267.279-.267.128.016.034.134-.147.332a8.097 8.097 0 01-.69.468zm-1.082-1.583V5.64c-.006-.02.013-.042.029-.05.074-.043.18-.027.26.004.063 0 .16.067.15.135-.006.049-.085.066-.135.066-.055 0-.092-.043-.141-.068-.052-.018-.146-.008-.163-.065zm-.551 0c-.02.058-.113.049-.166.066-.047.025-.086.068-.14.068-.05 0-.13-.02-.136-.068-.01-.066.088-.133.15-.133.08-.031.184-.047.259-.005.019.009.036.03.03.05v.02h.003z"/>
      </svg>
    </g>
    <text x="34" y="15" class="item-text">Microservices</text>
  </g>


  <g transform="translate(20, 109)">
    <g width="20" height="20" color="#2dd4bf" opacity="1.0">
      <svg width="20" height="20" viewBox="0 0 24 24">
        <title>Redis</title><path fill="currentColor" d="M10.5 2.661l.54.997-1.797.644 2.409.218.748 1.246.467-1.121 2.077-.208-1.61-.613.426-1.017-1.578.519zm6.905 2.077L13.76 6.182l3.292 1.298.353-.146 3.293-1.298zm-10.51.312a2.97 1.153 0 0 0-2.97 1.152 2.97 1.153 0 0 0 2.97 1.153 2.97 1.153 0 0 0 2.97-1.153 2.97 1.153 0 0 0-2.97-1.152zM24 6.805s-8.983 4.278-10.395 4.953c-1.226.561-1.901.561-3.261.094C8.318 11.022 0 7.241 0 7.241v1.038c0 .24.332.499.966.8 1.277.613 8.34 3.677 9.45 4.206 1.112.53 1.9.54 3.313-.197 1.412-.738 8.049-3.905 9.326-4.57.654-.342.945-.602.945-.84zm-10.042.602L8.39 8.26l3.884 1.61zM24 10.637s-8.983 4.279-10.395 4.954c-1.226.56-1.901.56-3.261.093C8.318 14.854 0 11.074 0 11.074v1.038c0 .238.332.498.966.8 1.277.612 8.34 3.676 9.45 4.205 1.112.53 1.9.54 3.313-.197 1.412-.737 8.049-3.905 9.326-4.57.654-.332.945-.602.945-.84zm0 3.842l-10.395 4.954c-1.226.56-1.901.56-3.261.094C8.318 18.696 0 14.916 0 14.916v1.038c0 .239.332.499.966.8 1.277.613 8.34 3.676 9.45 4.206 1.112.53 1.9.54 3.313-.198 1.412-.737 8.049-3.904 9.326-4.569.654-.343.945-.613.945-.841z"/>
      </svg>
    </g>
    <text x="34" y="15" class="item-text">Redis</text>
  </g>


  <g transform="translate(20, 147)">
    <g width="20" height="20" color="#2dd4bf" opacity="1.0">
      <svg width="20" height="20" viewBox="0 0 24 24">
        <title>Cloudflare</title><path fill="currentColor" d="M16.5088 16.8447c.1475-.5068.0908-.9707-.1553-1.3154-.2246-.3164-.6045-.499-1.0615-.5205l-8.6592-.1123a.1559.1559 0 0 1-.1333-.0713c-.0283-.042-.0351-.0986-.021-.1553.0278-.084.1123-.1484.2036-.1562l8.7359-.1123c1.0351-.0489 2.1601-.8868 2.5537-1.9136l.499-1.3013c.0215-.0561.0293-.1128.0147-.168-.5625-2.5463-2.835-4.4453-5.5499-4.4453-2.5039 0-4.6284 1.6177-5.3876 3.8614-.4927-.3658-1.1187-.5625-1.794-.499-1.2026.119-2.1665 1.083-2.2861 2.2856-.0283.31-.0069.6128.0635.894C1.5683 13.171 0 14.7754 0 16.752c0 .1748.0142.3515.0352.5273.0141.083.0844.1475.1689.1475h15.9814c.0909 0 .1758-.0645.2032-.1553l.12-.4268zm2.7568-5.5634c-.0771 0-.1611 0-.2383.0112-.0566 0-.1054.0415-.127.0976l-.3378 1.1744c-.1475.5068-.0918.9707.1543 1.3164.2256.3164.6055.498 1.0625.5195l1.8437.1133c.0557 0 .1055.0263.1329.0703.0283.043.0351.1074.0214.1562-.0283.084-.1132.1485-.204.1553l-1.921.1123c-1.041.0488-2.1582.8867-2.5527 1.914l-.1406.3585c-.0283.0713.0215.1416.0986.1416h6.5977c.0771 0 .1474-.0489.169-.126.1122-.4082.1757-.837.1757-1.2803 0-2.6025-2.125-4.727-4.7344-4.727"/>
      </svg>
    </g>
    <text x="34" y="15" class="item-text">CDN</text>
  </g>

</g>

<g transform="translate(1030, 430)">
  <rect width="220" height="240" class="glass-card"/>
  <rect x="20" y="25" width="12" height="12" rx="3" fill="#c084fc" opacity="0.3"/>
  <rect x="20" y="25" width="12" height="12" rx="3" fill="none" stroke="#c084fc" stroke-width="2"/>
  <text x="42" y="36" class="subtitle" fill="#c084fc">SECURITY &amp; AI</text>
  <line x1="20" y1="55" x2="200" y2="55" stroke="#ffffff" stroke-opacity="0.1"/>


  <g transform="translate(20, 71)">
    <g width="20" height="20" color="#c084fc" opacity="1.0">
      <svg width="20" height="20" viewBox="0 0 24 24">
        <title>Let's Encrypt</title><path fill="currentColor" d="M11.9914 0a.8829.8829 0 00-.8718.817v3.0209A.8829.8829 0 0012 4.7207a.8829.8829 0 00.8803-.8803V.817a.8829.8829 0 00-.889-.817zm7.7048 3.1089a.8804.8804 0 00-.5214.1742l-2.374 1.9482a.8804.8804 0 00.5592 1.5622.8794.8794 0 00.5592-.2001l2.3714-1.9506a.8804.8804 0 00-.5944-1.534zm-15.3763.0133a.8829.8829 0 00-.611 1.5206l2.37 1.9506a.876.876 0 00.5606.2001v-.002a.8804.8804 0 00.5597-1.5602L4.8277 3.2831a.8829.8829 0 00-.5078-.161zm7.6598 3.2275a5.0456 5.0456 0 00-5.0262 5.0455v1.4876H5.787a.9672.9672 0 00-.9647.9643v9.1887a.9672.9672 0 00.9647.9643H18.213a.9672.9672 0 00.9643-.9643v-9.1907a.9672.9672 0 00-.9643-.9623h-1.1684v-1.4876a5.0456 5.0456 0 00-5.0649-5.0455zm.0127 2.8933a2.1522 2.1522 0 012.1593 2.1522v1.4876H9.8473v-1.4876a2.1522 2.1522 0 012.145-2.1522zm7.3812.5033a.8829.8829 0 10.0705 1.7632h3.0267a.8829.8829 0 000-1.7609H19.444a.8829.8829 0 00-.0705-.0023zm-17.8444.0023a.8829.8829 0 000 1.7609h2.9983a.8829.8829 0 000-1.7609zm10.4596 6.7746a1.2792 1.2792 0 01.641 2.3926v1.2453a.6298.6298 0 01-1.2595 0v-1.2453a1.2792 1.2792 0 01.6185-2.3926z"/>
      </svg>
    </g>
    <text x="34" y="15" class="item-text">SSL / TLS / VPN</text>
  </g>


  <g transform="translate(20, 109)">
    <g width="20" height="20" color="#c084fc" opacity="1.0">
      <svg width="20" height="20" viewBox="0 0 24 24">
        <circle cx="12" cy="12" r="6" fill="currentColor"/>
      </svg>
    </g>
    <text x="34" y="15" class="item-text">AI Agents / LangChain</text>
  </g>


  <g transform="translate(20, 147)">
    <g width="20" height="20" color="#c084fc" opacity="1.0">
      <svg width="20" height="20" viewBox="0 0 24 24">
        <title>Anthropic</title><path fill="currentColor" d="M17.3041 3.541h-3.6718l6.696 16.918H24Zm-10.6082 0L0 20.459h3.7442l1.3693-3.5527h7.0052l1.3693 3.5528h3.7442L10.5363 3.5409Zm-.3712 10.2232 2.2914-5.9456 2.2914 5.9456Z"/>
      </svg>
    </g>
    <text x="34" y="15" class="item-text">Claude / Copilot</text>
  </g>


  <g transform="translate(20, 185)">
    <g width="20" height="20" color="#c084fc" opacity="1.0">
      <svg width="20" height="20" viewBox="0 0 24 24">
        <circle cx="12" cy="12" r="6" fill="currentColor"/>
      </svg>
    </g>
    <text x="34" y="15" class="item-text">n8n Automation</text>
  </g>

</g>

<!-- Footer -->
<rect x="50" y="730" width="1200" height="1.5" fill="#ffffff" opacity="0.15"/>
<text x="50" y="760" class="mono" font-size="13" font-weight="bold" fill="#94a3b8">10 CATEGORIES • 33 TOOLS DEPLOYED</text>
<text x="1250" y="760" class="mono" font-size="13" font-weight="bold" fill="#94a3b8" text-anchor="end">root@cyberdeck:~$<tspan class="cursor">_</tspan></text>
</g>

<!-- Loading Sequence Overlay -->
<g class="system-load">
  <rect width="1300" height="800" fill="#03050a"/>
  <text x="50%" y="48%" class="mono" font-size="22" font-weight="bold" fill="#38bdf8" text-anchor="middle">BOOT SEQUENCE INITIATED</text>
  <rect x="50%" y="52%" width="300" height="4" transform="translate(-150, 0)" fill="#1e293b" rx="2"/>
  <rect x="50%" y="52%" width="0" height="4" transform="translate(-150, 0)" fill="#38bdf8" rx="2">
    <animate attributeName="width" values="0;300" dur="1.8s" fill="freeze"/>
  </rect>
</g>
</svg>
