<svg viewBox="0 0 340 130" xmlns="http://www.w3.org/2000/svg" role="img">
  <defs>
    <filter id="softGlow"><feGaussianBlur stdDeviation="6" result="blur"/><feMerge><feMergeNode in="blur"/><feMergeNode in="SourceGraphic"/></feMerge></filter>
    <filter id="logoGlow"><feGaussianBlur stdDeviation="2" result="blur"/><feMerge><feMergeNode in="blur"/><feMergeNode in="SourceGraphic"/></feMerge></filter>
    <pattern id="hexGrid" width="40" height="69.282" patternUnits="userSpaceOnUse" patternTransform="scale(0.8)">
      <path d="M 40 17.321 L 20 5.774 L 0 17.321 L 0 40.415 L 20 51.962 L 40 40.415 Z M 40 51.962 L 20 63.509 L 0 51.962 M 20 5.774 L 20 -5.774 M 20 75.056 L 20 63.509 M 40 17.321 L 60 5.774 M 0 17.321 L -20 5.774 M 40 40.415 L 60 51.962 M 0 40.415 L -20 51.962" stroke="#ffffff" stroke-opacity="0.04" stroke-width="1.5" fill="none"/>
    </pattern>
    <clipPath id="cardClip">
      <rect width="340" height="130" rx="12"/>
    </clipPath>
  </defs>

  <style>
    .mono { font-family: 'JetBrains Mono', Consolas, 'Fira Code', monospace; }
    .card-bg { fill: #040910; stroke: #ffffff; stroke-width: 1.5; rx: 12; transition: all 0.3s ease; }
    .card-title { font-family: 'Segoe UI', sans-serif; font-weight: 700; font-size: 15px; fill: #ffffff; letter-spacing: 0.5px; }
    .logo-path { fill: #ffffff; filter: url(#logoGlow); }
    
    .hover-target { cursor: pointer; outline: none; }
    .hover-target:hover .card-bg { fill: #0a1322; stroke-width: 2.5; filter: url(#softGlow); }
    
    .scanner { opacity: 0.5; }
  </style>
  
  <rect width="340" height="130" rx="12" fill="url(#hexGrid)"/>
  
  <g class="hover-target">
    <rect width="340" height="130" class="card-bg"/>
    
    <!-- Logo -->
    <g transform="translate(25, 25) scale(1.5)">
      <path class="logo-path" d="M7.42 10.05c-.18-.16-.46-.23-.84-.23H6l.02 2.44.04 2.45.56-.02c.41 0 .63-.07.83-.26.24-.24.26-.36.26-2.2 0-1.91-.02-1.96-.29-2.18zM0 4.94v14.12h24V4.94H0zM8.56 15.3c-.44.58-1.06.77-2.53.77H4.71V8.53h1.4c1.67 0 2.16.18 2.6.9.27.43.29.6.32 2.57.05 2.23-.02 2.73-.47 3.3zm5.09-5.47h-2.47v1.77h1.52v1.28l-.72.04-.75.03v1.77l1.22.03 1.2.04v1.28h-1.6c-1.53 0-1.6-.01-1.87-.3l-.3-.28v-3.16c0-3.02.01-3.18.25-3.48.23-.31.25-.31 1.88-.31h1.64v1.3zm4.68 5.45c-.17.43-.64.79-1 .79-.18 0-.45-.15-.67-.39-.32-.32-.45-.63-.82-2.08l-.9-3.39-.45-1.67h.76c.4 0 .75.02.75.05 0 .06 1.16 4.54 1.26 4.83.04.15.32-.7.73-2.3l.66-2.52.74-.04c.4-.02.73 0 .73.04 0 .14-1.67 6.38-1.8 6.68z"/>
    </g>
    
    <!-- Title -->
    <text x="25" y="90" class="card-title">DEV.TO Community Member</text>
    
    <!-- Arrow -->
    <text x="305" y="115" class="mono" font-size="16" fill="#ffffff">↗</text>
    
    <!-- Glowing Border Animation -->
    <rect width="340" height="130" rx="12" fill="none" stroke="#ffffff" filter="url(#softGlow)">
      <animate attributeName="opacity" values="0;0.5;0" dur="3s" repeatCount="indefinite"/>
    </rect>
    
    <!-- Scanning Effect -->
    <g clip-path="url(#cardClip)">
      <linearGradient id="scanGrad" x1="0%" y1="0%" x2="100%" y2="0%">
      <stop offset="0%" stop-color="#ffffff" stop-opacity="0"/>
      <stop offset="50%" stop-color="#ffffff" stop-opacity="0.6"/>
      <stop offset="100%" stop-color="#ffffff" stop-opacity="0"/>
    </linearGradient>
    <rect x="0" y="0" width="340" height="130" fill="url(#scanGrad)">
      <animate attributeName="opacity" values="0;1;0" dur="4s" repeatCount="indefinite"/>
    </rect>
    </g>
  </g>
</svg>