<svg viewBox="0 0 340 130" xmlns="http://www.w3.org/2000/svg" role="img">
  <defs>
    <filter id="softGlow"><feGaussianBlur stdDeviation="6" result="blur"/><feMerge><feMergeNode in="blur"/><feMergeNode in="SourceGraphic"/></feMerge></filter>
    <filter id="logoGlow"><feGaussianBlur stdDeviation="2" result="blur"/><feMerge><feMergeNode in="blur"/><feMergeNode in="SourceGraphic"/></feMerge></filter>
    <pattern id="hexGrid" width="40" height="69.282" patternUnits="userSpaceOnUse" patternTransform="scale(0.8)">
      <path d="M 40 17.321 L 20 5.774 L 0 17.321 L 0 40.415 L 20 51.962 L 40 40.415 Z M 40 51.962 L 20 63.509 L 0 51.962 M 20 5.774 L 20 -5.774 M 20 75.056 L 20 63.509 M 40 17.321 L 60 5.774 M 0 17.321 L -20 5.774 M 40 40.415 L 60 51.962 M 0 40.415 L -20 51.962" stroke="#ef4444" stroke-opacity="0.04" stroke-width="1.5" fill="none"/>
    </pattern>
    <clipPath id="cardClip">
      <rect width="340" height="130" rx="12"/>
    </clipPath>
  </defs>

  <style>
    .mono { font-family: 'JetBrains Mono', Consolas, 'Fira Code', monospace; }
    .card-bg { fill: #040910; stroke: #ef4444; stroke-width: 1.5; rx: 12; transition: all 0.3s ease; }
    .card-title { font-family: 'Segoe UI', sans-serif; font-weight: 700; font-size: 15px; fill: #ffffff; letter-spacing: 0.5px; }
    .logo-path { fill: #ef4444; filter: url(#logoGlow); }
    
    .hover-target { cursor: pointer; outline: none; }
    .hover-target:hover .card-bg { fill: #0a1322; stroke-width: 2.5; filter: url(#softGlow); }
    
    .scanner { opacity: 0.5; }
  </style>
  
  <rect width="340" height="130" rx="12" fill="url(#hexGrid)"/>
  
  <g class="hover-target">
    <rect width="340" height="130" class="card-bg"/>
    
    <!-- Logo -->
    <g transform="translate(25, 25) scale(1.5)">
      <path class="logo-path" d="M16.412 4.412h-8.82a7.588 7.588 0 0 0-.008 15.176h8.828a7.588 7.588 0 0 0 0-15.176zm-.193 12.502H7.786a4.915 4.915 0 0 1 0-9.828h8.433a4.914 4.914 0 1 1 0 9.828z"/>
    </g>
    
    <!-- Title -->
    <text x="25" y="90" class="card-title">Oracle Edu</text>
    
    <!-- Arrow -->
    <text x="305" y="115" class="mono" font-size="16" fill="#ef4444">↗</text>
    
    <!-- Glowing Border Animation -->
    <rect width="340" height="130" rx="12" fill="none" stroke="#ef4444" filter="url(#softGlow)">
      <animate attributeName="opacity" values="0;0.5;0" dur="3s" repeatCount="indefinite"/>
    </rect>
    
    <!-- Scanning Effect -->
    <g clip-path="url(#cardClip)">
      <linearGradient id="scanGrad" x1="0%" y1="0%" x2="0%" y2="100%">
      <stop offset="0%" stop-color="#ef4444" stop-opacity="0"/>
      <stop offset="50%" stop-color="#ef4444" stop-opacity="0.8"/>
      <stop offset="100%" stop-color="#ef4444" stop-opacity="0"/>
    </linearGradient>
    <rect x="0" y="0" width="340" height="2" fill="url(#scanGrad)" class="scanner">
      <animateTransform attributeName="transform" type="translate" from="0 -20" to="0 150" dur="3s" repeatCount="indefinite" />
    </rect>
    <rect x="0" y="0" width="340" height="2" fill="url(#scanGrad)" class="scanner">
      <animateTransform attributeName="transform" type="translate" from="0 150" to="0 -20" dur="3s" repeatCount="indefinite" />
    </rect>
    </g>
  </g>
</svg>